<svg width="39" height="13" viewBox="0 0 39 13" fill="none" xmlns="http://www.w3.org/2000/svg">
<path d="M5.18821 1.09091V12H3.53693V2.74219H3.47301L0.862926 4.44673V2.87003L3.58487 1.09091H5.18821ZM11.6371 12.1811C10.7955 12.1776 10.0764 11.9556 9.47983 11.5153C8.88324 11.0749 8.42692 10.4339 8.11087 9.59233C7.79482 8.75071 7.63679 7.73686 7.63679 6.55078C7.63679 5.36825 7.79482 4.35795 8.11087 3.51989C8.43047 2.68182 8.88857 2.04261 9.48516 1.60227C10.0853 1.16193 10.8026 0.941761 11.6371 0.941761C12.4717 0.941761 13.1872 1.16371 13.7838 1.6076C14.3804 2.04794 14.8367 2.68714 15.1528 3.52521C15.4724 4.35973 15.6322 5.36825 15.6322 6.55078C15.6322 7.74041 15.4741 8.75604 15.1581 9.59766C14.842 10.4357 14.3857 11.0767 13.7891 11.5206C13.1925 11.9609 12.4752 12.1811 11.6371 12.1811ZM11.6371 10.7589C12.3758 10.7589 12.9528 10.3984 13.3683 9.67756C13.7874 8.95668 13.9969 7.91442 13.9969 6.55078C13.9969 5.64524 13.901 4.87997 13.7092 4.25497C13.521 3.62642 13.2494 3.15057 12.8942 2.82741C12.5427 2.50071 12.1237 2.33736 11.6371 2.33736C10.9021 2.33736 10.325 2.69957 9.90597 3.42401C9.48693 4.14844 9.27564 5.1907 9.27209 6.55078C9.27209 7.45987 9.36619 8.22869 9.5544 8.85724C9.74616 9.48224 10.0178 9.95632 10.3694 10.2795C10.721 10.5991 11.1435 10.7589 11.6371 10.7589ZM20.8227 12.1491C20.1551 12.1491 19.5549 12.0213 19.0222 11.7656C18.4931 11.5064 18.0705 11.1513 17.7545 10.7003C17.4384 10.2493 17.2698 9.73438 17.2485 9.15554H18.8465C18.8855 9.62429 19.0933 10.0096 19.4697 10.3114C19.8461 10.6133 20.2971 10.7642 20.8227 10.7642C21.2417 10.7642 21.6128 10.6683 21.936 10.4766C22.2627 10.2812 22.5183 10.0131 22.703 9.67223C22.8912 9.33132 22.9853 8.94247 22.9853 8.50568C22.9853 8.06179 22.8894 7.66584 22.6977 7.31783C22.5059 6.96982 22.2414 6.69638 21.904 6.49751C21.5702 6.29865 21.1867 6.19744 20.7534 6.19389C20.4232 6.19389 20.0911 6.25071 19.7573 6.36435C19.4235 6.47798 19.1536 6.62713 18.9477 6.81179L17.4402 6.58807L18.0528 1.09091H24.0507V2.50249H19.4218L19.0755 5.55469H19.1394C19.3525 5.34872 19.6348 5.17649 19.9864 5.038C20.3415 4.8995 20.7215 4.83026 21.1263 4.83026C21.7904 4.83026 22.3816 4.98828 22.9001 5.30433C23.4221 5.62038 23.8323 6.05185 24.1306 6.59872C24.4324 7.14205 24.5816 7.76705 24.578 8.47372C24.5816 9.1804 24.4218 9.81072 24.0986 10.3647C23.779 10.9187 23.3351 11.3555 22.7669 11.6751C22.2023 11.9911 21.5542 12.1491 20.8227 12.1491ZM36.7541 4.91548L36.2481 6.01278H29.2434L29.643 4.91548H36.7541ZM35.8006 7.07812L35.2839 8.18608H29.2434L29.643 7.07812H35.8006ZM38.0538 2.02308L37.4253 3.37074C37.2264 3.20028 37.0098 3.04581 36.7754 2.90732C36.541 2.76882 36.2889 2.65874 36.019 2.57706C35.7491 2.49183 35.4597 2.44922 35.1508 2.44922C34.5826 2.44922 34.0765 2.60192 33.6327 2.90732C33.1888 3.21271 32.839 3.67081 32.5833 4.2816C32.3312 4.88885 32.2051 5.64524 32.2051 6.55078C32.2051 7.45632 32.3312 8.21271 32.5833 8.81996C32.839 9.4272 33.1888 9.88352 33.6327 10.1889C34.0765 10.4908 34.5826 10.6417 35.1508 10.6417C35.4633 10.6417 35.7545 10.6009 36.0243 10.5192C36.2978 10.4375 36.5464 10.331 36.7701 10.1996C36.9974 10.0646 37.2015 9.92259 37.3827 9.77344L38.0272 11.1158C37.6508 11.4567 37.214 11.7141 36.7168 11.8881C36.2197 12.0621 35.6976 12.1491 35.1508 12.1491C34.2594 12.1491 33.4693 11.9237 32.7804 11.4727C32.095 11.0217 31.557 10.3789 31.1664 9.54439C30.7758 8.70632 30.5805 7.70845 30.5805 6.55078C30.5805 5.38956 30.7758 4.38991 31.1664 3.55185C31.557 2.71378 32.095 2.06925 32.7804 1.61825C33.4693 1.16726 34.2594 0.941761 35.1508 0.941761C35.7189 0.941761 36.2481 1.03587 36.7381 1.22408C37.2282 1.40874 37.6667 1.67507 38.0538 2.02308Z" fill="white"/>
</svg>
