<svg width="70" height="75" viewBox="0 0 70 75" fill="none" xmlns="http://www.w3.org/2000/svg">
<path d="M68.75 12.5H65V8.75C65 8.05971 64.4408 7.5 63.75 7.5H60V1.25C60 0.559714 59.4408 0 58.75 0H7.5C3.36443 0 0 3.36443 0 7.5V67.5C0 71.6356 3.36443 75 7.5 75H68.75C69.4408 75 70 74.4403 70 73.75V13.75C70 13.0597 69.4408 12.5 68.75 12.5ZM57.5 60H12.5V2.5H57.5V60ZM7.5 2.5H10V60H7.5C5.57814 60 3.82871 60.7327 2.5 61.9257V7.5C2.5 4.74329 4.74214 2.5 7.5 2.5ZM67.5 72.5H7.5C4.74214 72.5 2.5 70.2567 2.5 67.5C2.5 64.7433 4.74214 62.5 7.5 62.5H58.75C59.4408 62.5 60 61.9403 60 61.25V10H62.5V67.5H11.25C10.5592 67.5 10 68.0597 10 68.75C10 69.4403 10.5592 70 11.25 70H63.75C64.4408 70 65 69.4403 65 68.75V15H67.5V72.5Z" fill="white"/>
<path d="M23.75 48.75H46.25C46.9408 48.75 47.5 48.1903 47.5 47.5V36.25C47.5 29.3571 41.8923 23.75 35 23.75C28.1077 23.75 22.5 29.3571 22.5 36.25V47.5C22.5 48.1903 23.0592 48.75 23.75 48.75ZM25 46.25V38.75H30C30.4738 38.75 30.9057 38.4827 31.1183 38.0592L32.5 35.2946L36.3817 43.0592C36.5943 43.4827 37.0262 43.75 37.5 43.75C37.9738 43.75 38.4057 43.4827 38.6183 43.0592L40.7729 38.75H45V46.25L25 46.25ZM35 26.25C40.514 26.25 45 30.736 45 36.25H40C39.5262 36.25 39.0943 36.5173 38.8817 36.9408L37.5 39.7054L33.6183 31.9408C33.1936 31.0937 31.8069 31.0937 31.3817 31.9408L29.2271 36.25H25C25 30.736 29.486 26.25 35 26.25V26.25Z" fill="white"/>
<path d="M35 21.25C39.8243 21.25 43.75 17.3247 43.75 12.5C43.75 7.67529 39.8243 3.75 35 3.75C30.1757 3.75 26.25 7.67529 26.25 12.5C26.25 17.3247 30.1757 21.25 35 21.25ZM35 6.25C38.4459 6.25 41.25 9.05414 41.25 12.5C41.25 15.9459 38.4459 18.75 35 18.75C31.5541 18.75 28.75 15.9459 28.75 12.5C28.75 9.05414 31.5541 6.25 35 6.25Z" fill="white"/>
<path d="M22.5 58.75H47.5C48.1908 58.75 48.75 58.1903 48.75 57.5V52.5C48.75 51.8097 48.1908 51.25 47.5 51.25H22.5C21.8092 51.25 21.25 51.8097 21.25 52.5V57.5C21.25 58.1903 21.8092 58.75 22.5 58.75ZM23.75 53.75H46.25V56.25H23.75V53.75Z" fill="white"/>
</svg>
