<svg width="75" height="75" viewBox="0 0 75 75" fill="none" xmlns="http://www.w3.org/2000/svg">
<path d="M71.0513 60.2136C73.0434 60.2136 74.6643 58.5929 74.6643 56.6006V25.2895C74.6643 23.2975 73.0435 21.6766 71.0513 21.6766H69.8472V16.8595H63.6114C58.9042 6.59154 48.6772 0 37.3322 0C25.9871 0 15.7594 6.59154 11.0529 16.8595H4.81709V21.6766H3.61296C1.62089 21.6766 0 23.2973 0 25.2895V56.6006C0 58.5927 1.62075 60.2136 3.61296 60.2136H31.4322C31.6134 61.1032 31.9926 61.9214 32.5202 62.6223L3.61299 62.6213C1.62091 62.6213 2.64478e-05 64.2421 2.64478e-05 66.2343V71.0513C2.64478e-05 73.0434 1.62078 74.6643 3.61299 74.6643H71.051C73.0431 74.6643 74.664 73.0435 74.664 71.0513V66.2343C74.664 64.2422 73.0433 62.6213 71.051 62.6213H42.1439C42.6709 61.9208 43.0501 61.1025 43.2319 60.2126L71.0513 60.2136ZM32.5151 16.8602H25.5284C28.66 13.7733 32.8427 12.0431 37.3322 12.0431C41.8216 12.0431 46.0043 13.7733 49.136 16.8602H42.1492C40.1816 16.8602 38.4316 17.8091 37.3322 19.2732C36.2327 17.8087 34.4828 16.8602 32.5151 16.8602ZM52.3732 16.8602C48.6936 12.2603 43.2459 9.63439 37.3323 9.63439C31.4187 9.63439 25.9706 12.2603 22.2914 16.8602H19.3082C23.3111 10.8708 30.0423 7.22606 37.333 7.22606C44.6237 7.22606 51.3539 10.8713 55.3578 16.8602H52.3732ZM38.5363 22.8813C38.5363 20.8893 40.157 19.2684 42.1492 19.2684H67.4392V52.9874H42.1492C40.1572 52.9874 38.5363 51.3667 38.5363 49.3745V22.8813ZM37.3322 2.4086C47.3573 2.4086 56.4303 8.02297 60.9368 16.8602H58.1926C53.8886 9.41346 45.9627 4.81733 37.3319 4.81733C28.7011 4.81733 20.775 9.4136 16.4712 16.8602H13.727C18.2326 8.0235 27.3066 2.4086 37.3316 2.4086H37.3322ZM7.22635 19.2681H32.5163C34.5084 19.2681 36.1293 20.8889 36.1293 22.8811V49.375C36.1293 51.3671 34.5085 52.9879 32.5163 52.9879L7.22635 52.9874V19.2681ZM52.9877 72.2559H40.9448V65.0301H52.9877V72.2559ZM55.3964 65.0307H57.8052V72.2565H55.3964V65.0307ZM38.5369 65.0307V72.2565H36.1282V65.0307H38.5369ZM21.6774 65.0307H33.7203V72.2565H21.6774V65.0307ZM19.2687 72.2559H16.8599V65.0301H19.2687V72.2559ZM2.40916 71.0518V66.2347C2.40916 65.5707 2.94925 65.0306 3.61328 65.0306H14.4515V72.2564L3.61328 72.2559C2.94923 72.2559 2.40916 71.7158 2.40916 71.0518V71.0518ZM72.2565 66.2347V71.0518C72.2565 71.7159 71.7164 72.2559 71.0524 72.2559H60.2141V65.0301H71.0524C71.7164 65.0307 72.2565 65.5707 72.2565 66.2348V66.2347ZM33.7203 59.0095V57.8054L3.61446 57.8048C2.95041 57.8048 2.41033 57.2647 2.41033 56.6007V25.2896C2.41033 24.6256 2.95042 24.0855 3.61446 24.0855H4.81858V55.3966H32.5165C34.4841 55.3966 36.2341 54.4477 37.3335 52.9836C38.433 54.4475 40.1829 55.3966 42.1506 55.3966H69.8484V24.0855H71.0526C71.7166 24.0855 72.2567 24.6256 72.2567 25.2896V56.6007C72.2567 57.2648 71.7166 57.8048 71.0526 57.8048H40.9468V59.009C40.9468 61.001 39.326 62.6219 37.3338 62.6219C35.3416 62.6219 33.7208 61.0012 33.7208 59.0095L33.7203 59.0095Z" fill="white"/>
<path d="M46.1734 38.124C47.0666 39.0172 48.2244 39.6073 49.466 39.8094C50.4863 40.5443 51.7227 40.9458 52.9856 40.9458C54.2486 40.9458 55.485 40.5443 56.5052 39.8094C57.7463 39.6073 58.9046 39.0172 59.7978 38.124C60.691 37.2308 61.2811 36.073 61.4832 34.8314C62.2186 33.8111 62.6196 32.5747 62.6196 31.3118C62.6196 30.0489 62.2181 28.8124 61.4832 27.7921C61.2817 26.551 60.6911 25.3927 59.7978 24.4996C58.9046 23.6064 57.7468 23.0163 56.5052 22.8142C55.485 22.0788 54.2485 21.6777 52.9856 21.6777C51.7226 21.6777 50.4862 22.0793 49.466 22.8142C48.2249 23.0157 47.0666 23.6063 46.1734 24.4996C45.2802 25.3928 44.6901 26.5506 44.488 27.7921C43.7531 28.8124 43.3516 30.0489 43.3516 31.3118C43.3516 32.5747 43.7531 33.8112 44.488 34.8314C44.6895 36.0725 45.2807 37.2308 46.1734 38.124ZM46.5723 29.03L46.801 28.7498L46.8374 28.3899C46.9223 27.554 47.2812 26.7973 47.8765 26.2025C48.4718 25.6072 49.228 25.2484 50.0644 25.1634L50.4243 25.127L50.7045 24.8984C51.3555 24.3666 52.1446 24.0859 52.9856 24.0859C53.8273 24.0859 54.6163 24.3666 55.2673 24.8984L55.5475 25.127L55.9074 25.1634C56.7433 25.2483 57.5 25.6072 58.0948 26.2025C58.6901 26.7978 59.0489 27.554 59.1338 28.3904L59.1703 28.7503L59.3989 29.0305C59.9307 29.681 60.2114 30.4701 60.2114 31.3116C60.2114 32.1532 59.9307 32.9423 59.3989 33.5933L59.1703 33.8735L59.1338 34.2334C59.0489 35.0693 58.6901 35.826 58.0948 36.4208C57.4995 37.0161 56.7432 37.3749 55.9069 37.4598L55.547 37.4963L55.2668 37.7249C54.6163 38.2562 53.8272 38.5369 52.9856 38.5369C52.1441 38.5369 51.355 38.2562 50.704 37.7244L50.4238 37.4958L50.0639 37.4593C49.228 37.3744 48.4713 37.0156 47.8765 36.4203C47.2812 35.825 46.9223 35.0687 46.8374 34.2323L46.801 33.8725L46.5723 33.5922C46.0411 32.9417 45.7604 32.1527 45.7604 31.3116C45.7604 30.47 46.0411 29.681 46.5723 29.03Z" fill="white"/>
<path d="M52.988 34.9232C54.98 34.9232 56.6009 33.3024 56.6009 31.3102C56.6009 29.3182 54.9802 27.6973 52.988 27.6973C50.9959 27.6973 49.375 29.318 49.375 31.3102C49.3755 33.3028 50.9958 34.9232 52.988 34.9232ZM52.988 30.1061C53.652 30.1061 54.1921 30.6462 54.1921 31.3103C54.1921 31.9743 53.652 32.5144 52.988 32.5144C52.3239 32.5144 51.7838 31.9743 51.7838 31.3103C51.7838 30.6467 52.3239 30.1061 52.988 30.1061Z" fill="white"/>
<path d="M52.9882 43.3535H40.9453V50.5793H52.9882V43.3535ZM50.58 48.1706H43.3542V45.7618H50.58V48.1706Z" fill="white"/>
<path d="M55.3945 43.3535H65.0287V45.7622H55.3945V43.3535Z" fill="white"/>
<path d="M55.3945 48.1719H65.0287V50.5806H55.3945V48.1719Z" fill="white"/>
<path d="M9.63281 50.5813H21.6757V43.3555H9.63281V50.5813ZM12.0415 45.7642H19.2673V48.1729L12.0415 48.1724V45.7642Z" fill="white"/>
<path d="M24.0859 43.3535H33.7201V45.7622H24.0859V43.3535Z" fill="white"/>
<path d="M24.0859 48.1719H33.7201V50.5806H24.0859V48.1719Z" fill="white"/>
<path d="M31.3111 31.3119V21.6777H30.107C26.7076 21.6777 23.6692 23.2506 21.6807 25.7068C19.6417 23.185 16.5511 21.6777 13.2471 21.6777H12.043V31.3119C12.043 36.6242 16.3647 40.946 21.6771 40.946C26.9895 40.946 31.3112 36.6242 31.3112 31.3119H31.3111ZM20.0027 38.3414C16.823 37.5846 14.4512 34.7196 14.4512 31.3119V24.173C16.8334 24.5173 18.9708 25.8699 20.3016 27.8994C19.6391 29.3004 19.2683 30.866 19.2683 32.516C19.2683 34.4872 19.5152 36.4398 20.0026 38.3413L20.0027 38.3414ZM22.5406 38.4862C21.9672 36.5472 21.6771 34.5426 21.6771 32.5161C21.6771 28.2766 24.8228 24.7579 28.9029 24.172L28.9023 31.312C28.9023 35.0036 26.1191 38.0577 22.5405 38.4863L22.5406 38.4862Z" fill="white"/>
</svg>
