<svg width="21" height="19" viewBox="0 0 21 19" fill="none" xmlns="http://www.w3.org/2000/svg">
<path fill-rule="evenodd" clip-rule="evenodd" d="M9.3847 0.60274L6.84522 5.73617L0.959988 6.46114C0.538171 6.51318 0.185273 6.79326 0.0540668 7.18061C-0.077617 7.56745 0.0357273 7.99259 0.34519 8.27171L4.66119 12.1701L3.56329 17.7521C3.4848 18.1521 3.65416 18.5598 3.99797 18.7988C4.34197 19.0382 4.79946 19.0661 5.17257 18.8711L10.3789 16.1465L15.5853 18.8711C15.9584 19.0661 16.4159 19.0382 16.7599 18.7988C17.1037 18.5598 17.2731 18.1521 17.1946 17.7521L16.0967 12.1701L20.4127 8.27171C20.7221 7.99257 20.8355 7.56743 20.7038 7.18061C20.5726 6.79329 20.2197 6.51321 19.7979 6.46114L13.9126 5.73617L11.3732 0.60274C11.1911 0.234715 10.8043 0 10.3788 0C9.95337 0 9.5666 0.234703 9.38451 0.60274H9.3847Z" fill="#FFA200"/>
</svg>
