<svg width="77" height="75" viewBox="0 0 77 75" fill="none" xmlns="http://www.w3.org/2000/svg">
<path d="M12.7119 38.1356H22.8814V35.5932H12.7119V6.35593H58.4746V12.7119H61.017V6.35593H68.6441V35.5932H62.2882V38.1356H68.6441V53.3899H71.1865V0H68.6441V3.81356H61.017V0H58.4746V3.81356H12.7119V0H10.1695V3.81356H2.54237V0H0V73.7288H2.54237V69.9153H10.1695V73.7288H12.7119V69.9153H15.2542V67.3729H12.7119V38.1356ZM10.1695 6.35593V35.5932H2.54237V6.35593H10.1695ZM2.54237 67.3729V38.1356H10.1695V67.3729H2.54237Z" fill="white"/>
<path d="M5.08594 10.1699H7.62831V12.7123H5.08594V10.1699Z" fill="white"/>
<path d="M5.08594 16.5254H7.62831V19.0678H5.08594V16.5254Z" fill="white"/>
<path d="M5.08594 22.8809H7.62831V25.4232H5.08594V22.8809Z" fill="white"/>
<path d="M5.08594 29.2383H7.62831V31.7807H5.08594V29.2383Z" fill="white"/>
<path d="M5.08594 41.9492H7.62831V44.4916H5.08594V41.9492Z" fill="white"/>
<path d="M5.08594 48.3047H7.62831V50.8471H5.08594V48.3047Z" fill="white"/>
<path d="M63.5586 41.9492H66.101V44.4916H63.5586V41.9492Z" fill="white"/>
<path d="M63.5586 48.3047H66.101V50.8471H63.5586V48.3047Z" fill="white"/>
<path d="M5.08594 54.6621H7.62831V57.2045H5.08594V54.6621Z" fill="white"/>
<path d="M5.08594 61.0176H7.62831V63.56H5.08594V61.0176Z" fill="white"/>
<path d="M63.5586 10.1699H66.101V12.7123H63.5586V10.1699Z" fill="white"/>
<path d="M63.5586 16.5254H66.101V19.0678H63.5586V16.5254Z" fill="white"/>
<path d="M63.5586 22.8809H66.101V25.4232H63.5586V22.8809Z" fill="white"/>
<path d="M63.5586 29.2383H66.101V31.7807H63.5586V29.2383Z" fill="white"/>
<path d="M59.4364 53.3892C60.1106 53.3875 60.7581 53.6554 61.2336 54.1338L65.2015 58.1016C65.4398 58.34 65.7633 58.4739 66.1004 58.4739H76.2699V55.9315H66.627L63.032 52.3359H63.0314C62.0803 51.3791 60.7853 50.8428 59.4363 50.8468H54.8697L47.5325 31.5857C47.0683 30.3679 45.9901 29.49 44.7035 29.2828C43.417 29.0756 42.118 29.5705 41.2951 30.5812C40.4728 31.5919 40.2515 32.9641 40.7157 34.1819L49.0017 55.9316H47.3458C45.9912 55.9316 44.7228 56.5961 43.9522 57.7101C43.1816 58.8241 43.0068 60.2451 43.484 61.5129C43.9613 62.7801 45.0305 63.7329 46.3447 64.0615L48.3037 64.5513V69.9147C48.3054 71.263 48.8416 72.5552 49.7945 73.5086C50.7479 74.4614 52.0401 74.9977 53.3884 74.9994H56.8938C60.5002 75.0096 63.9756 73.6459 66.6132 71.1858H76.2698V68.6435H66.1003C65.7632 68.6435 65.4397 68.7774 65.2014 69.0157C63.0029 71.2267 60.011 72.4655 56.8937 72.4571H53.3883C52.7141 72.4565 52.0683 72.1881 51.5917 71.7114C51.115 71.2347 50.8465 70.5889 50.846 69.9148V63.5588C50.846 62.9754 50.4487 62.467 49.8829 62.3257L46.961 61.5947H46.9615C46.1863 61.3995 45.6779 60.6578 45.7755 59.8645C45.8731 59.0717 46.5461 58.4752 47.3458 58.4741H58.4732V55.9317H56.807L55.8383 53.3894L59.4364 53.3892ZM43.2146 32.257C43.4189 31.9557 43.7605 31.7763 44.1249 31.7792C44.5828 31.7809 44.9931 32.0629 45.1577 32.4908L46.0271 34.7721L43.9586 35.5479L43.0921 33.2767C42.9598 32.9379 43.0058 32.5554 43.2147 32.2569L43.2146 32.257ZM51.7224 55.9316L44.8619 37.9229L46.9304 37.1471L54.0865 55.9316L51.7224 55.9316Z" fill="white"/>
<path d="M43.2188 24.1517C44.9037 24.1534 46.5194 24.8237 47.7111 26.0154C48.9028 27.2071 49.573 28.8227 49.5747 30.5077H52.1171C52.1171 27.492 50.5894 24.6813 48.0589 23.0411C45.5284 21.4005 42.3391 21.1536 39.5863 22.3845C36.8334 23.6154 34.8914 26.1572 34.4265 29.137C33.9623 32.117 35.0383 35.1292 37.2862 37.1399L38.9819 35.2456V35.245C37.6948 34.0941 36.9316 32.4695 36.8674 30.7437C36.8032 29.0185 37.4434 27.341 38.6419 26.0977C39.8399 24.8543 41.4919 24.1517 43.2188 24.1517V24.1517Z" fill="white"/>
<path d="M53.7792 41.516L55.5395 43.3507V43.3502C59.5478 39.5048 61.5305 34.0086 60.9006 28.4896C60.2707 22.9708 57.1001 18.063 52.3286 15.2199C47.5577 12.3762 41.7323 11.9238 36.579 13.9958C31.4255 16.0683 27.5354 20.4277 26.0605 25.7833C24.5862 31.1381 25.6962 36.8744 29.0625 41.2932C32.4283 45.7111 37.664 48.3046 43.2186 48.3046V45.7622C38.4578 45.7622 33.9696 43.5393 31.0845 39.7525C28.1994 35.9657 27.2477 31.0483 28.5115 26.4584C29.7759 21.8684 33.1104 18.1316 37.5273 16.3553C41.9447 14.5789 46.9375 14.9666 51.0275 17.404C55.1174 19.8413 57.8345 24.0482 58.3748 28.7783C58.9145 33.5084 57.2148 38.2196 53.7792 41.5157V41.516Z" fill="white"/>
<path d="M24.1512 17.797V15.2547H26.6935V12.7123H24.1512V10.1699H21.6088V12.7123H19.0664V15.2547H21.6088V17.797H24.1512Z" fill="white"/>
<path d="M16.5273 29.2383H19.0697V31.7807H16.5273V29.2383Z" fill="white"/>
<path d="M34.3203 8.89844H36.8627V11.4408H34.3203V8.89844Z" fill="white"/>
<path d="M52.1172 10.1699H54.6596V12.7123H52.1172V10.1699Z" fill="white"/>
<path d="M41.9484 68.6434C40.2516 68.6457 38.666 67.8012 37.7205 66.3928C36.7745 64.9842 36.5941 63.1966 37.2382 61.6275C37.8829 60.0577 39.2676 58.9131 40.9303 58.5755L40.4241 56.0842C38.9168 56.3952 37.539 57.154 36.4692 58.2605C35.3994 59.3671 34.6889 60.7705 34.4296 62.2875H31.671C31.242 59.7502 29.5628 57.5999 27.2043 56.5695C24.8464 55.5395 22.1276 55.7676 19.9744 57.1767C17.8214 58.5852 16.5234 60.9852 16.5234 63.5588C16.5234 66.1324 17.8213 68.5322 19.9744 69.9408C22.1274 71.3499 24.8463 71.5781 27.2043 70.5481C29.5628 69.5175 31.242 67.3672 31.671 64.8301H34.429C34.8722 67.4531 36.6502 69.6561 39.1211 70.6424C41.592 71.6292 44.3982 71.257 46.5264 69.6606L44.9992 67.6267C44.1207 68.2895 43.0493 68.647 41.9483 68.6436L41.9484 68.6434ZM24.1518 68.6434C22.8035 68.6434 21.5101 68.1077 20.5562 67.1543C19.6028 66.2003 19.0671 64.907 19.0671 63.5587C19.0671 62.2103 19.6028 60.9169 20.5562 59.963C21.5101 59.0096 22.8035 58.4739 24.1518 58.4739C25.5002 58.4739 26.7936 59.0096 27.7475 59.963C28.7009 60.917 29.2366 62.2103 29.2366 63.5587C29.2349 64.907 28.6986 66.1992 27.7457 67.1526C26.7923 68.1054 25.5002 68.6417 24.1518 68.6434Z" fill="white"/>
<path d="M26.2999 49.2242C26.6154 48.9234 26.7544 48.4825 26.6693 48.0552L25.3981 41.6992L22.9051 42.198L23.7825 46.5837L20.6465 45.7994H20.6459C20.2231 45.6939 19.776 45.8119 19.4604 46.1127C19.1449 46.4135 19.0059 46.8544 19.091 47.2817L20.3622 53.6377L22.8552 53.1388L21.9778 48.7532L25.1138 49.5374H25.1143C25.5371 49.6436 25.9843 49.5255 26.2999 49.2242V49.2242Z" fill="white"/>
</svg>
