<svg width="32" height="32" viewBox="0 0 32 32" fill="none" xmlns="http://www.w3.org/2000/svg">
<g clip-path="url(#clip0_380_30037)">
<path d="M25.1753 0H6.82467C3.05551 0 0 3.05551 0 6.82467V25.1753C0 28.9445 3.05551 32 6.82467 32H25.1753C28.9445 32 32 28.9445 32 25.1753V6.82467C32 3.05551 28.9445 0 25.1753 0Z" fill="#1877F2"/>
<path d="M22.5442 20.3935L23.2874 15.5483H18.6386V12.404C18.6386 11.0784 19.2879 9.78637 21.3702 9.78637H23.4838V5.66137C23.4838 5.66137 21.5656 5.33398 19.7317 5.33398C15.9029 5.33398 13.4005 7.65446 13.4005 11.8554V15.5483H9.14453V20.3935H13.4005V32.1065C15.136 32.3781 16.9031 32.3781 18.6386 32.1065V20.3935H22.5442Z" fill="white"/>
</g>
<defs>
<clipPath id="clip0_380_30037">
<rect width="32" height="32" fill="white"/>
</clipPath>
</defs>
</svg>
