<svg width="14" height="18" viewBox="0 0 14 18" fill="none" xmlns="http://www.w3.org/2000/svg">
<path d="M9.36636 6.66979C9.36636 8.16038 8.15814 9.36859 6.66755 9.36859C5.17697 9.36859 3.96875 8.16038 3.96875 6.66979C3.96875 5.1792 5.17697 3.9707 6.66755 3.9707C8.15814 3.9707 9.36636 5.1792 9.36636 6.66979Z" fill="#A4353B"/>
<path d="M6.66784 0.000283347C3.01633 0.000283347 0 2.97706 0 6.66812C0 8.65264 2.30204 12.4631 6.15208 16.8289C6.27113 16.9875 6.46964 17.067 6.66814 17.067C6.86665 17.067 7.06516 16.9875 7.1842 16.8289C11.0339 12.4631 13.3357 8.65264 13.3357 6.66812C13.3357 3.01661 10.3193 0 6.66787 0L6.66784 0.000283347ZM6.66784 10.9945C4.28628 10.9945 2.34166 9.04962 2.34166 6.66834C2.34166 4.28677 4.28635 2.34216 6.66784 2.34216C9.04934 2.34216 10.994 4.28706 10.994 6.66834C10.994 9.04962 9.04934 10.9945 6.66784 10.9945Z" fill="#A4353B"/>
</svg>
