<svg width="24" height="25" viewBox="0 0 24 25" fill="none" xmlns="http://www.w3.org/2000/svg">
<path d="M23.2376 0.725266C23.0665 0.599643 22.8633 0.533203 22.6512 0.533203C22.5489 0.533203 22.4476 0.548799 22.351 0.579777L17.2091 2.20922C14.9751 2.91683 13.1426 4.46976 12.0875 6.52285C11.0321 4.46998 9.19982 2.91678 6.9665 2.20922L1.82522 0.579777C1.72823 0.548799 1.62739 0.533203 1.52506 0.533203C1.31314 0.533203 1.11062 0.599003 0.937367 0.725266C0.683146 0.911991 0.53125 1.21173 0.53125 1.5264V18.3864C0.53125 18.8209 0.810043 19.2016 1.22428 19.333L7.2243 21.234C8.76907 21.7241 10.1359 22.7208 11.075 24.0411L11.2496 24.2867C11.3711 24.4583 11.5482 24.5784 11.7766 24.6444L11.8627 24.6717L12.078 24.7048H12.1148C12.4425 24.7048 12.7484 24.5438 12.9347 24.2731L13.1571 23.9479C14.0073 22.7045 15.2675 21.7688 16.7048 21.3124L22.9504 19.3339C23.3649 19.2025 23.6435 18.8218 23.6435 18.3872V1.52612C23.6441 1.21122 23.4922 0.912093 23.2373 0.725155L23.2376 0.725266ZM21.6582 2.88304V17.6592L16.105 19.4188C15.0129 19.7655 13.9901 20.3313 13.1086 21.0721V10.5226C13.1086 7.57257 14.9973 4.99263 17.8094 4.10224L21.6582 2.88304ZM2.51788 2.88304L6.36646 4.10273C9.17785 4.99296 11.0666 7.57377 11.0666 10.5231V21.1284C10.1123 20.3273 9.00459 19.715 7.82509 19.3411L2.51783 17.6593L2.51788 2.88304Z" fill="white"/>
<path d="M4.2132 8.54137C4.2132 8.54137 9.00069 10.048 9.06479 10.048C9.34358 10.048 9.58734 9.86937 9.6713 9.60382C9.723 9.44144 9.70805 9.26968 9.62986 9.11906C9.55167 8.9678 9.41921 8.8565 9.25685 8.80543C9.25685 8.80543 4.47002 7.29883 4.40422 7.29883C4.12672 7.29883 3.8836 7.47743 3.79963 7.74299C3.69303 8.07691 3.87867 8.43539 4.21322 8.54139L4.2132 8.54137Z" fill="white"/>
<path d="M4.2132 12.3148C4.2132 12.3148 9.00069 13.8214 9.06479 13.8214C9.34358 13.8214 9.58734 13.6428 9.6713 13.3773C9.723 13.2149 9.70805 13.0431 9.62986 12.8925C9.55167 12.7412 9.41921 12.6299 9.25685 12.5789C9.25685 12.5789 4.47002 11.0723 4.40422 11.0723C4.12672 11.0723 3.8836 11.2509 3.79963 11.5164C3.69303 11.8504 3.87867 12.2084 4.21322 12.3148L4.2132 12.3148Z" fill="white"/>
<path d="M4.2132 16.0863C4.2132 16.0863 9.00069 17.5929 9.06479 17.5929C9.34358 17.5929 9.58734 17.4143 9.6713 17.1487C9.723 16.9864 9.70805 16.8146 9.62986 16.664C9.55167 16.5127 9.41921 16.4014 9.25685 16.3504C9.25685 16.3504 4.47002 14.8438 4.40422 14.8438C4.12672 14.8438 3.8836 15.0224 3.79963 15.2879C3.69303 15.622 3.87867 15.9803 4.21322 16.0863L4.2132 16.0863Z" fill="white"/>
<path d="M19.9923 8.90856C19.9923 8.90856 15.2048 10.4152 15.1407 10.4152C14.8619 10.4152 14.6181 10.2366 14.5342 9.971C14.4825 9.80863 14.4974 9.63687 14.5756 9.48625C14.6538 9.33499 14.7863 9.22368 14.9486 9.17262C14.9486 9.17262 19.7355 7.66602 19.8013 7.66602C20.0788 7.66602 20.3219 7.84462 20.4059 8.11018C20.5122 8.44431 20.3266 8.80258 19.9923 8.90857L19.9923 8.90856Z" fill="white"/>
<path d="M19.9923 12.682C19.9923 12.682 15.2048 14.1886 15.1407 14.1886C14.8619 14.1886 14.6181 14.01 14.5342 13.7444C14.4825 13.5821 14.4974 13.4103 14.5756 13.2597C14.6538 13.1084 14.7863 12.9971 14.9486 12.9461C14.9486 12.9461 19.7355 11.4395 19.8013 11.4395C20.0788 11.4395 20.3219 11.6181 20.4059 11.8836C20.5122 12.2178 20.3266 12.5756 19.9923 12.682L19.9923 12.682Z" fill="white"/>
<path d="M19.9923 16.4554C19.9923 16.4554 15.2048 17.962 15.1407 17.962C14.8619 17.962 14.6181 17.7834 14.5342 17.5179C14.4825 17.3555 14.4974 17.1837 14.5756 17.0331C14.6538 16.8819 14.7863 16.7706 14.9486 16.7195C14.9486 16.7195 19.7355 15.2129 19.8013 15.2129C20.0788 15.2129 20.3219 15.3915 20.4059 15.6571C20.5122 15.9912 20.3266 16.3495 19.9923 16.4554L19.9923 16.4554Z" fill="white"/>
</svg>
