<svg width="17" height="17" viewBox="0 0 17 17" fill="none" xmlns="http://www.w3.org/2000/svg">
<path fill-rule="evenodd" clip-rule="evenodd" d="M3.02304 0.122619L6.06194 3.16207C6.21646 3.31662 6.22569 3.56392 6.08375 3.72938C5.56201 4.33836 4.76645 5.26706 4.35966 5.75996C4.11773 6.04445 4.01719 6.42334 4.08557 6.79049C4.08935 6.81063 4.0948 6.83063 4.10151 6.84979C4.30358 7.43848 4.88881 8.67281 6.60915 10.393C8.38121 12.166 9.86015 12.7373 10.5539 12.9354C10.5705 12.94 10.5877 12.9438 10.6048 12.9463C10.9995 13.0073 11.3996 12.8761 11.682 12.5937L13.2915 10.9837C13.3697 10.9056 13.4763 10.8613 13.5869 10.8613C13.6975 10.8613 13.8041 10.9056 13.8822 10.9837L16.8776 13.9798C16.9557 14.0578 17 14.1644 17 14.275C17 14.3858 16.9557 14.4922 16.8776 14.5704C16.442 15.0057 15.8356 15.6127 15.3009 16.1432C15.3005 16.1437 15.3001 16.1441 15.2997 16.1445C14.5922 16.8517 13.5722 17.1479 12.5967 16.9294C10.728 16.4871 7.71222 15.3278 4.69362 12.3087C1.67517 9.28968 0.516204 6.27326 0.0705025 4.40455C-0.147931 3.42759 0.148674 2.40655 0.856548 1.69856L2.43243 0.122384C2.5106 0.0443384 2.61702 0 2.72778 0C2.83839 0 2.94495 0.0443384 3.02298 0.122384L3.02304 0.122619Z" fill="#A4353B"/>
</svg>
