<svg width="36" height="36" viewBox="0 0 36 36" fill="none" xmlns="http://www.w3.org/2000/svg">
<path d="M18.0091 18.1138C16.5734 18.1138 15.1699 17.6881 13.9761 16.8905C12.7824 16.0928 11.852 14.9591 11.3026 13.6327C10.7531 12.3063 10.6094 10.8467 10.8895 9.43859C11.1696 8.03047 11.8609 6.73703 12.8761 5.72184C13.8913 4.70664 15.1848 4.01528 16.5929 3.73519C18.001 3.45509 19.4606 3.59885 20.787 4.14827C22.1134 4.69769 23.2471 5.6281 24.0448 6.82185C24.8424 8.01559 25.2681 9.41906 25.2681 10.8548C25.2681 12.78 24.5033 14.6264 23.142 15.9877C21.7807 17.349 19.9343 18.1138 18.0091 18.1138Z" stroke="white" stroke-width="1.5" stroke-linecap="round" stroke-linejoin="round"/>
<path d="M30.4773 32.6314C30.4773 27.0129 24.8878 22.4688 18.0062 22.4688C11.1246 22.4688 5.53516 27.0129 5.53516 32.6314" stroke="white" stroke-width="1.5" stroke-linecap="round" stroke-linejoin="round"/>
</svg>
