<svg width="41" height="61" viewBox="0 0 41 61" fill="none" xmlns="http://www.w3.org/2000/svg">
<path d="M35.5837 61C36.9313 60.9983 38.2235 60.4622 39.1762 59.5094C40.1294 58.5563 40.6655 57.2645 40.6673 55.9165V5.08352C40.6656 3.73551 40.1294 2.44372 39.1762 1.49059C38.2235 0.537882 36.9313 0.00174287 35.5837 0H5.08352C3.73595 0.00170202 2.44372 0.537839 1.49103 1.49059C0.537894 2.44372 0.00174287 3.73551 0 5.08352V55.9165C0.00170202 57.2645 0.537839 58.5563 1.49103 59.5094C2.44373 60.4621 3.73595 60.9983 5.08352 61H35.5837ZM38.6338 50.8334H2.03349V10.1657H38.6338V50.8334ZM5.08352 2.03306H35.5837C36.3926 2.03306 37.1683 2.35431 37.7406 2.92619C38.3125 3.49807 38.6338 4.27419 38.6338 5.0831V8.13312H2.03351V5.0831C2.03351 4.27421 2.35477 3.49807 2.92665 2.92619C3.49895 2.35431 4.27465 2.03306 5.08356 2.03306H5.08352ZM2.03349 55.916V52.866H38.6338V55.916C38.6338 56.7249 38.3125 57.5011 37.7406 58.073C37.1683 58.6448 36.3926 58.9661 35.5837 58.9661H5.08349C4.27461 58.9661 3.4989 58.6448 2.92658 58.073C2.3547 57.5011 2.03345 56.725 2.03345 55.916H2.03349Z" fill="#A4353B"/>
<path d="M7.11645 46.7653H33.5492C34.3581 46.7653 35.1343 46.444 35.7062 45.8722C36.278 45.3003 36.5993 44.5242 36.5993 43.7153V17.2825C36.5993 16.4736 36.278 15.6974 35.7062 15.1256C35.1343 14.5537 34.3582 14.2324 33.5492 14.2324H7.11645C6.30756 14.2324 5.53142 14.5537 4.95954 15.1256C4.38766 15.6974 4.06641 16.4736 4.06641 17.2825V43.7153C4.06641 44.5242 4.38766 45.3003 4.95954 45.8722C5.53142 46.444 6.30754 46.7653 7.11645 46.7653ZM6.0995 17.2825C6.0995 16.7208 6.55479 16.2655 7.11645 16.2655H33.5492C33.819 16.2655 34.0777 16.3728 34.2684 16.5634C34.459 16.754 34.5662 17.0127 34.5662 17.2825V43.7153C34.5662 43.9851 34.459 44.2438 34.2684 44.4344C34.0777 44.625 33.819 44.7323 33.5492 44.7323H7.11645C6.55479 44.7323 6.0995 44.277 6.0995 43.7153V17.2825Z" fill="#A4353B"/>
<path d="M24.3993 6.09989H25.4163C25.9775 6.09989 26.4328 5.6446 26.4328 5.08336C26.4328 4.5217 25.9775 4.06641 25.4163 4.06641H24.3993C23.8381 4.06641 23.3828 4.5217 23.3828 5.08336C23.3828 5.6446 23.8381 6.09989 24.3993 6.09989Z" fill="#A4353B"/>
<path d="M19.3177 56.9339H21.3512H21.3508C21.9125 56.9339 22.3677 56.4786 22.3677 55.9169C22.3677 55.3557 21.9125 54.9004 21.3508 54.9004H19.3177C18.7561 54.9004 18.3008 55.3557 18.3008 55.9169C18.3008 56.4786 18.7561 56.9339 19.3177 56.9339H19.3177Z" fill="#A4353B"/>
<path d="M15.2509 6.09989H20.3344C20.8961 6.09989 21.3509 5.6446 21.3509 5.08336C21.3509 4.5217 20.8961 4.06641 20.3344 4.06641H15.2509C14.6897 4.06641 14.2344 4.5217 14.2344 5.08336C14.2344 5.6446 14.6897 6.09989 15.2509 6.09989Z" fill="#A4353B"/>
<path d="M13.2171 36.5991H27.4498C27.9893 36.5991 28.5063 36.3851 28.8876 36.0034C29.2692 35.6221 29.4833 35.1052 29.4833 34.5656V32.5326C29.4833 31.9709 29.028 31.5156 28.4667 31.5156C27.9051 31.5156 27.4498 31.9709 27.4498 32.5326V34.5661L13.2171 34.5656V32.5326C13.2171 31.9709 12.7618 31.5156 12.2001 31.5156C11.6389 31.5156 11.1836 31.9709 11.1836 32.5326V34.5661V34.5657C11.1836 35.1052 11.3976 35.6222 11.7793 36.0034C12.1606 36.3851 12.6775 36.5991 13.2171 36.5991L13.2171 36.5991Z" fill="#A4353B"/>
<path d="M19.6156 32.2343C20.0126 32.6309 20.656 32.6309 21.053 32.2343L23.0865 30.2008C23.4715 29.8017 23.466 29.1677 23.0741 28.7758C22.6818 28.3835 22.0478 28.3779 21.6487 28.763L21.3508 29.0609V21.3486C21.3508 20.7869 20.8959 20.332 20.3343 20.332C19.7726 20.332 19.3178 20.7869 19.3178 21.3486V29.0609L19.0199 28.763C18.6208 28.3779 17.9868 28.3835 17.5944 28.7758C17.2026 29.1677 17.197 29.8017 17.5821 30.2008L19.6156 32.2343Z" fill="#A4353B"/>
<path d="M25.4179 38.6328H15.2509C14.6897 38.6328 14.2344 39.0877 14.2344 39.6493C14.2344 40.211 14.6897 40.6659 15.2509 40.6659H25.4179C25.9792 40.6659 26.4345 40.211 26.4345 39.6493C26.4345 39.0877 25.9792 38.6328 25.4179 38.6328Z" fill="#A4353B"/>
</svg>
