<svg width="149" height="44" viewBox="0 0 149 44" fill="none" xmlns="http://www.w3.org/2000/svg">
<path d="M147.275 38.8067C147.275 39.3605 147.166 39.9088 146.954 40.4204C146.743 40.932 146.432 41.3967 146.041 41.7881C145.65 42.1795 145.185 42.4898 144.674 42.7013C144.163 42.9129 143.615 43.0214 143.062 43.0209H5.19492C4.0775 43.022 3.00536 42.5787 2.2143 41.7884C1.42323 40.9982 0.978019 39.9256 0.976562 38.8067V5.20013C0.978018 4.08069 1.42306 3.00758 2.21396 2.21643C3.00487 1.42528 4.07699 0.980759 5.19492 0.980469H143.061C143.615 0.980469 144.162 1.08962 144.674 1.30169C145.185 1.51376 145.649 1.8246 146.04 2.21645C146.432 2.60829 146.742 3.07347 146.954 3.58542C147.165 4.09737 147.274 4.64605 147.274 5.20013L147.275 38.8067Z" fill="white"/>
<path d="M143.064 44H5.1963C3.81977 43.9997 2.49957 43.4526 1.52539 42.4788C0.551206 41.5049 0.00261917 40.1839 0 38.8055L0 5.20003C0.00203638 3.82095 0.550261 2.49899 1.52441 1.52414C2.49856 0.549292 3.81908 0.001164 5.1963 0L143.063 0C144.44 0.0017448 145.76 0.550059 146.734 1.52478C147.708 2.4995 148.256 3.82113 148.259 5.20003V38.8055C148.261 41.6707 145.926 44 143.064 44Z" fill="#A6A6A6"/>
<path d="M147.275 38.8067C147.275 39.3605 147.166 39.9088 146.954 40.4204C146.743 40.932 146.432 41.3967 146.041 41.7881C145.65 42.1795 145.185 42.4898 144.674 42.7013C144.163 42.9129 143.615 43.0214 143.062 43.0209H5.19492C4.0775 43.022 3.00536 42.5787 2.2143 41.7884C1.42323 40.9982 0.978019 39.9256 0.976562 38.8067V5.20013C0.978018 4.08069 1.42306 3.00758 2.21396 2.21643C3.00487 1.42528 4.07699 0.980759 5.19492 0.980469H143.061C143.615 0.980469 144.162 1.08962 144.674 1.30169C145.185 1.51376 145.649 1.8246 146.04 2.21645C146.432 2.60829 146.742 3.07347 146.954 3.58542C147.165 4.09737 147.274 4.64605 147.274 5.20013L147.275 38.8067Z" fill="black"/>
<path d="M33.1039 21.7677C33.072 18.2214 36.0036 16.4961 36.1377 16.4158C34.4774 13.9918 31.904 13.6606 30.9996 13.6342C28.8383 13.4065 26.7417 14.9293 25.6407 14.9293C24.5177 14.9293 22.8222 13.6562 20.9949 13.6936C18.6434 13.7299 16.4436 15.0932 15.2371 17.2102C12.7472 21.5267 14.6042 27.8699 16.9897 31.359C18.183 33.0689 19.5774 34.9757 21.4026 34.9086C23.1882 34.836 23.8551 33.7698 26.0099 33.7698C28.1449 33.7698 28.7712 34.9086 30.6326 34.8657C32.549 34.836 33.7555 33.1492 34.907 31.425C36.286 29.4676 36.8398 27.5376 36.8618 27.4386C36.8179 27.4232 33.1412 26.017 33.1039 21.7677ZM29.5877 11.339C30.548 10.1364 31.2051 8.5002 31.0227 6.83984C29.6327 6.90146 27.8944 7.80261 26.8934 8.97883C26.0077 10.0153 25.2166 11.7142 25.4209 13.3118C26.9824 13.4285 28.5855 12.5229 29.5877 11.339Z" fill="white"/>
<path d="M143.065 0H69.2188L98.1429 44H143.065C144.442 43.9989 145.762 43.451 146.736 42.4767C147.71 41.5023 148.258 40.1809 148.261 38.8022V5.20003C148.259 3.82104 147.71 2.49925 146.736 1.52446C145.762 0.549676 144.442 0.00145451 143.065 0V0Z" fill="url(#paint0_linear_380_29993)"/>
<path d="M58.9663 34.6643H56.4709L55.104 30.3632H50.3527L49.0506 34.6643H46.6211L51.3295 20.0214H54.237L58.9663 34.6643ZM54.6919 28.5587L53.4557 24.7351C53.325 24.3445 53.0788 23.4247 52.7184 21.9767H52.6745C52.5294 22.5995 52.2976 23.5193 51.98 24.7351L50.7647 28.5587H54.6919ZM71.0511 29.2552C71.0511 31.0509 70.5643 32.4703 69.5896 33.5123C68.7172 34.4398 67.6327 34.903 66.3393 34.903C64.9428 34.903 63.9384 34.4046 63.3286 33.4055V38.9456H60.9859V27.5761C60.9859 26.4483 60.9562 25.2919 60.8991 24.1058H62.9594L63.0901 25.7793H63.1341C63.9154 24.5184 65.101 23.8879 66.6921 23.8879C67.9359 23.8879 68.9743 24.3797 69.805 25.3645C70.6346 26.3515 71.0511 27.6476 71.0511 29.2552ZM68.6644 29.341C68.6644 28.3133 68.4337 27.4661 67.97 26.7982C67.4634 26.1039 66.7833 25.7562 65.9306 25.7562C65.3526 25.7562 64.8274 25.9499 64.3582 26.3317C63.8879 26.7168 63.5802 27.2196 63.4363 27.8424C63.372 28.0753 63.3355 28.315 63.3275 28.5565V30.3181C63.3275 31.085 63.5626 31.7331 64.0329 32.2634C64.5032 32.7916 65.1142 33.0567 65.8658 33.0567C66.7481 33.0567 67.4349 32.7145 67.926 32.0357C68.4183 31.3546 68.6644 30.4567 68.6644 29.341ZM83.1787 29.2552C83.1787 31.0509 82.6919 32.4703 81.7173 33.5123C80.8437 34.4398 79.7603 34.903 78.4659 34.903C77.0693 34.903 76.065 34.4046 75.4551 33.4055V38.9456H73.1125V27.5761C73.1125 26.4483 73.0828 25.2919 73.0256 24.1058H75.0859L75.2167 25.7793H75.2606C76.0408 24.5184 77.2264 23.8879 78.8186 23.8879C80.0614 23.8879 81.0998 24.3797 81.9327 25.3645C82.7612 26.3515 83.1787 27.6476 83.1787 29.2552ZM80.791 29.341C80.791 28.3133 80.5591 27.4661 80.0954 26.7982C79.5889 26.1039 78.9109 25.7562 78.0582 25.7562C77.4802 25.7562 76.955 25.9499 76.4836 26.3317C76.0133 26.7168 75.7068 27.2196 75.5628 27.8424C75.4914 28.1329 75.4529 28.3694 75.4529 28.5565V30.3181C75.4529 31.085 75.6892 31.7331 76.1573 32.2634C76.6276 32.7905 77.2385 33.0567 77.9923 33.0567C78.8757 33.0567 79.5625 32.7145 80.0526 32.0357C80.5448 31.3546 80.791 30.4567 80.791 29.341ZM96.7381 30.5568C96.7381 31.8035 96.303 32.8169 95.4382 33.5992C94.4866 34.453 93.1582 34.881 91.455 34.881C89.8815 34.881 88.62 34.5774 87.6685 33.9689L88.2102 32.0136C89.2376 32.6232 90.3661 32.9269 91.5945 32.9269C92.478 32.9269 93.1647 32.7266 93.6548 32.3294C94.146 31.9311 94.3943 31.3986 94.3943 30.734C94.3943 30.1387 94.1888 29.6403 93.7856 29.2343C93.3801 28.8294 92.7098 28.452 91.7682 28.1054C89.2079 27.1492 87.9267 25.7507 87.9267 23.911C87.9267 22.7095 88.3794 21.7258 89.2826 20.9567C90.1859 20.1887 91.3836 19.8047 92.8736 19.8047C94.2042 19.8047 95.3129 20.0369 96.1931 20.5001L95.6052 22.4124C94.7767 21.9635 93.8416 21.739 92.7956 21.739C91.9692 21.739 91.3209 21.9426 90.8572 22.3475C90.4672 22.7095 90.2694 23.1507 90.2694 23.6745C90.2694 24.2521 90.4946 24.7318 90.9429 25.1081C91.3319 25.4547 92.0418 25.8321 93.0681 26.2371C94.3273 26.7454 95.2525 27.3374 95.8448 28.0173C96.4414 28.6973 96.7381 29.5457 96.7381 30.5568ZM104.503 25.8663H101.921V30.9926C101.921 32.2964 102.376 32.9467 103.288 32.9467C103.707 32.9467 104.054 32.9115 104.329 32.8378L104.394 34.6192C103.932 34.7919 103.324 34.8788 102.572 34.8788C101.647 34.8788 100.923 34.5961 100.402 34.0305C99.8818 33.465 99.6203 32.5176 99.6203 31.184V25.8619H98.082V24.1014H99.6203V22.1681L101.921 21.4727V24.1014H104.503V25.8663ZM116.131 29.2981C116.131 30.9211 115.667 32.2535 114.742 33.2955C113.774 34.3683 112.486 34.903 110.881 34.903C109.332 34.903 108.1 34.3892 107.181 33.3626C106.263 32.3338 105.803 31.0377 105.803 29.4742C105.803 27.838 106.278 26.4978 107.224 25.4558C108.172 24.4128 109.449 23.8912 111.055 23.8912C112.602 23.8912 113.844 24.4062 114.785 25.4338C115.684 26.4307 116.131 27.7181 116.131 29.2981ZM113.703 29.352C113.703 28.3849 113.494 27.5552 113.075 26.8609C112.584 26.0225 111.881 25.6033 110.97 25.6033C110.032 25.6033 109.312 26.0225 108.822 26.8609C108.402 27.5552 108.193 28.3992 108.193 29.396C108.193 30.3643 108.402 31.1961 108.822 31.8882C109.328 32.7266 110.035 33.1459 110.95 33.1459C111.846 33.1459 112.548 32.7178 113.056 31.8673C113.486 31.1565 113.703 30.3214 113.703 29.352ZM123.749 26.1688C123.506 26.1248 123.258 26.1031 123.011 26.1039C122.187 26.1039 121.549 26.4142 121.101 27.0392C120.712 27.5893 120.516 28.2847 120.516 29.1243V34.6643H118.174V27.4309C118.176 26.3225 118.153 25.2142 118.106 24.1069H120.146L120.232 26.127H120.297C120.545 25.4327 120.934 24.8727 121.468 24.4535C121.957 24.0872 122.551 23.8888 123.161 23.8879C123.378 23.8879 123.573 23.9033 123.747 23.9308L123.749 26.1688ZM134.226 28.8855C134.232 29.2421 134.204 29.5984 134.141 29.9495H127.113C127.139 30.9926 127.48 31.7914 128.132 32.3415C128.725 32.8323 129.491 33.0787 130.431 33.0787C131.472 33.0787 132.421 32.9137 133.275 32.5803L133.642 34.2077C132.644 34.6434 131.466 34.8601 130.107 34.8601C128.472 34.8601 127.188 34.3782 126.255 33.4165C125.323 32.4538 124.856 31.1598 124.856 29.5391C124.856 27.948 125.29 26.6222 126.159 25.5648C127.069 24.4359 128.298 23.8714 129.845 23.8714C131.365 23.8714 132.516 24.4359 133.297 25.5648C133.915 26.4593 134.226 27.5684 134.226 28.8855ZM131.993 28.277C132.009 27.5805 131.855 26.9809 131.538 26.4736C131.132 25.82 130.508 25.4944 129.672 25.4944C128.906 25.4944 128.282 25.8123 127.807 26.4505C127.417 26.9578 127.185 27.5673 127.114 28.2748L131.993 28.277Z" fill="white"/>
<path d="M49.6767 14.8448C49.0251 14.8448 48.4614 14.8129 47.9922 14.759V7.67967C48.6484 7.57816 49.3115 7.52813 49.9756 7.53003C52.6622 7.53003 53.8994 8.85369 53.8994 11.0114C53.8994 13.5003 52.438 14.8448 49.6767 14.8448ZM50.07 8.43778C49.7074 8.43778 49.3987 8.45978 49.1426 8.5126V13.8942C49.2811 13.9162 49.547 13.9261 49.9206 13.9261C51.6809 13.9261 52.683 12.9226 52.683 11.0433C52.683 9.36753 51.7765 8.43778 50.07 8.43778ZM57.7552 14.8988C56.241 14.8988 55.2598 13.7665 55.2598 12.2294C55.2598 10.6274 56.2619 9.48526 57.8409 9.48526C59.3331 9.48526 60.3363 10.5636 60.3363 12.1447C60.3363 13.7665 59.3023 14.8988 57.7552 14.8988ZM57.7991 10.3281C56.9673 10.3281 56.4344 11.1071 56.4344 12.1964C56.4344 13.2648 56.9783 14.0438 57.7881 14.0438C58.598 14.0438 59.1419 13.2109 59.1419 12.1744C59.1419 11.1181 58.6089 10.3281 57.7991 10.3281ZM68.9708 9.59199L67.35 14.781H66.2941L65.6227 12.5276C65.4558 11.9764 65.3168 11.4171 65.2062 10.8518H65.1843C65.0997 11.4174 64.9392 11.9841 64.7689 12.5276L64.0547 14.781H62.9877L61.4626 9.59199H62.646L63.2328 12.0589C63.3712 12.6464 63.4877 13.201 63.5844 13.7247H63.6064C63.691 13.2879 63.8294 12.7422 64.0327 12.0699L64.7689 9.59309H65.7073L66.4116 12.0171C66.582 12.6046 66.7204 13.1812 66.8281 13.7258H66.8589C66.9336 13.1922 67.0511 12.6255 67.2105 12.0171L67.8401 9.59309L68.9708 9.59199ZM74.9373 14.781H73.7858V11.8014C73.7858 10.8838 73.4342 10.4238 72.7408 10.4238C72.0585 10.4238 71.5893 11.0114 71.5893 11.6947V14.781H70.4377V11.0752C70.4377 10.6164 70.4267 10.1245 70.3948 9.59089H71.408L71.4618 10.3919H71.4937C71.8035 9.83736 72.432 9.48526 73.1364 9.48526C74.2242 9.48526 74.9384 10.3182 74.9384 11.6738L74.9373 14.781ZM78.1129 14.781H76.9603V7.21094H78.1129V14.781ZM82.3115 14.8988C80.7984 14.8988 79.8161 13.7665 79.8161 12.2294C79.8161 10.6274 80.8182 9.48526 82.3961 9.48526C83.8894 9.48526 84.8915 10.5636 84.8915 12.1447C84.8926 13.7665 83.8575 14.8988 82.3115 14.8988ZM82.3544 10.3281C81.5226 10.3281 80.9896 11.1071 80.9896 12.1964C80.9896 13.2648 81.5346 14.0438 82.3423 14.0438C83.1532 14.0438 83.696 13.2109 83.696 12.1744C83.6971 11.1181 83.1653 10.3281 82.3544 10.3281ZM89.4318 14.781L89.3483 14.1836H89.3176C88.9659 14.6644 88.4528 14.8988 87.8023 14.8988C86.8738 14.8988 86.2145 14.2474 86.2145 13.3715C86.2145 12.0908 87.3232 11.4284 89.2428 11.4284V11.3327C89.2428 10.6494 88.8813 10.3072 88.1671 10.3072C87.6561 10.3072 87.2078 10.4359 86.8134 10.6923L86.5793 9.93419C87.0584 9.63491 87.6562 9.48526 88.3583 9.48526C89.712 9.48526 90.3955 10.2005 90.3955 11.632V13.5432C90.3955 14.0669 90.4186 14.4729 90.4702 14.7821L89.4318 14.781ZM89.2736 12.1964C87.9946 12.1964 87.3529 12.5067 87.3529 13.2428C87.3529 13.7875 87.6836 14.0537 88.1429 14.0537C88.7286 14.0537 89.2736 13.6059 89.2736 12.9974V12.1964ZM95.9874 14.781L95.9335 13.9481H95.9017C95.5709 14.5775 95.0149 14.8988 94.2381 14.8988C92.9887 14.8988 92.0635 13.7985 92.0635 12.2503C92.0635 10.6274 93.0228 9.48416 94.3326 9.48416C95.0259 9.48416 95.5171 9.71853 95.794 10.1895H95.8171V7.21094H96.9697V13.3825C96.9697 13.8843 96.9818 14.3541 97.0126 14.781H95.9874ZM95.8171 11.7277C95.8171 11.0015 95.3369 10.382 94.604 10.382C93.7502 10.382 93.2282 11.1401 93.2282 12.2074C93.2282 13.2538 93.77 13.9701 94.5809 13.9701C95.305 13.9701 95.8171 13.3396 95.8171 12.5925V11.7277ZM104.278 14.8988C102.765 14.8988 101.784 13.7665 101.784 12.2294C101.784 10.6274 102.786 9.48526 104.364 9.48526C105.857 9.48526 106.859 10.5636 106.859 12.1447C106.86 13.7665 105.826 14.8988 104.278 14.8988ZM104.321 10.3281C103.49 10.3281 102.957 11.1071 102.957 12.1964C102.957 13.2648 103.501 14.0438 104.31 14.0438C105.121 14.0438 105.664 13.2109 105.664 12.1744C105.666 11.1181 105.133 10.3281 104.321 10.3281ZM113.052 14.781H111.899V11.8014C111.899 10.8838 111.548 10.4238 110.854 10.4238C110.172 10.4238 109.704 11.0114 109.704 11.6947V14.781H108.551V11.0752C108.551 10.6164 108.54 10.1245 108.508 9.59089H109.521L109.575 10.3919H109.607C109.916 9.83736 110.546 9.48416 111.249 9.48416C112.337 9.48416 113.052 10.3171 113.052 11.6727V14.781ZM120.8 10.4568H119.533V12.9765C119.533 13.618 119.755 13.9382 120.203 13.9382C120.406 13.9382 120.577 13.9162 120.714 13.8843L120.746 14.7601C120.523 14.8459 120.224 14.8889 119.853 14.8889C118.945 14.8889 118.402 14.3871 118.402 13.0734V10.4568H117.646V9.59199H118.402V8.64133L119.533 8.29914V9.59089H120.8V10.4568ZM126.896 14.781H125.746V11.8234C125.746 10.8948 125.395 10.4249 124.701 10.4249C124.104 10.4249 123.548 10.8309 123.548 11.6529V14.781H122.397V7.21094H123.548V10.3281H123.571C123.934 9.76254 124.459 9.48416 125.129 9.48416C126.226 9.48416 126.896 10.338 126.896 11.6947V14.781ZM133.142 12.4638H129.686C129.708 13.4464 130.357 14.0009 131.319 14.0009C131.83 14.0009 132.3 13.9151 132.715 13.7555L132.894 14.5566C132.404 14.77 131.827 14.8768 131.156 14.8768C129.535 14.8768 128.576 13.8513 128.576 12.2613C128.576 10.6703 129.558 9.47426 131.026 9.47426C132.35 9.47426 133.181 10.4568 133.181 11.9411C133.189 12.1163 133.175 12.2917 133.142 12.4638ZM132.086 11.6419C132.086 10.8408 131.682 10.2753 130.946 10.2753C130.285 10.2753 129.762 10.8518 129.687 11.6419H132.086Z" fill="white"/>
<defs>
<linearGradient id="paint0_linear_380_29993" x1="108.739" y1="44.1168" x2="108.739" y2="-114.568" gradientUnits="userSpaceOnUse">
<stop stop-color="#1A1A1A" stop-opacity="0.1"/>
<stop offset="0.123" stop-color="#212121" stop-opacity="0.151"/>
<stop offset="0.308" stop-color="#353535" stop-opacity="0.227"/>
<stop offset="0.532" stop-color="#575757" stop-opacity="0.318"/>
<stop offset="0.783" stop-color="#858585" stop-opacity="0.421"/>
<stop offset="1" stop-color="#B3B3B3" stop-opacity="0.51"/>
</linearGradient>
</defs>
</svg>
