<svg width="22" height="39" viewBox="0 0 22 39" fill="none" xmlns="http://www.w3.org/2000/svg">
<path d="M21.9995 19.4587C21.9928 18.5855 21.6591 17.7489 21.069 17.1265L5.5352 0.990942C4.92886 0.358305 4.10583 0.0018829 3.24662 9.80462e-06C2.38745 -0.0018671 1.56263 0.350802 0.953987 0.980158C0.344942 1.60999 0.00180945 2.4649 6.93067e-06 3.35739C-0.0017975 4.24989 0.337716 5.10661 0.943606 5.73883L14.1913 19.4997L0.943604 33.2605L0.943604 33.261C0.127325 34.1127 -0.189617 35.3526 0.112425 36.5128C0.414469 37.6736 1.28949 38.5787 2.40771 38.8872C3.52649 39.1958 4.71837 38.8609 5.53517 38.0088L21.069 21.8733C21.679 21.2303 22.0144 20.3595 21.9995 19.4571L21.9995 19.4587Z" fill="black"/>
</svg>
