<svg width="39" height="33" viewBox="0 0 39 33" fill="none" xmlns="http://www.w3.org/2000/svg">
<path d="M0.891816 0.00011179C0.399394 0.00011179 0 0.399521 0 0.891927C0 1.38466 0.39941 1.78374 0.891816 1.78374H5.64403L7.205 5.67177L12.4169 18.7157L10.3266 23.7327C10.0976 24.2727 10.562 24.9738 11.1487 24.9729H33.4461C33.9388 24.9729 34.3379 24.5735 34.3379 24.081C34.3379 23.5883 33.9385 23.1892 33.4461 23.1892H12.4865L14.2005 19.0641C14.2863 18.8523 14.2863 18.6072 14.2005 18.3953L8.84919 5.01691L7.06556 0.557435C6.93398 0.231749 6.5946 0.00186342 6.24343 0L0.891816 0.00011179ZM10.2567 5.3514L15.608 18.2839L35.6756 16.946L38.3515 5.35132L10.2567 5.3514ZM15.608 26.7569C13.8841 26.7569 12.4865 28.1545 12.4865 29.8784C12.4865 31.6024 13.8841 33 15.608 33C17.3319 33 18.7296 31.6024 18.7296 29.8784C18.7296 28.1545 17.3319 26.7569 15.608 26.7569ZM28.9864 26.7569C27.2625 26.7569 25.8649 28.1545 25.8649 29.8784C25.8649 31.6024 27.2625 33 28.9864 33C30.7103 33 32.108 31.6024 32.108 29.8784C32.108 28.1545 30.7103 26.7569 28.9864 26.7569Z" fill="white"/>
</svg>
