<svg width="18" height="18" viewBox="0 0 18 18" fill="none" xmlns="http://www.w3.org/2000/svg">
<path d="M11.8644 0.000223481C11.4262 0.000223481 11.0818 0.344585 11.0818 0.782837C11.0818 1.22109 11.4262 1.56545 11.8644 1.56545C14.4627 1.56545 16.4035 3.66285 16.4035 6.41771V11.5828C16.4035 14.2438 14.2123 16.4351 11.5513 16.4351H6.41733C3.75633 16.4351 1.56506 14.2438 1.56506 11.5828L1.56528 6.41749C1.56528 3.66263 3.50611 1.56523 6.10439 1.56523C6.54264 1.56523 6.887 1.22087 6.887 0.782614C6.887 0.344361 6.54264 0 6.10439 0C2.69225 0 0 2.8173 0 6.41743V11.5826C0 15.12 2.88002 18 6.41743 18H11.5826C15.12 18 18 15.12 18 11.5826V6.41743C17.9686 2.81752 15.3078 0 11.8643 0L11.8644 0.000223481Z" fill="white"/>
<path d="M8.98436 0.000223481C8.5461 0.000223481 8.20174 0.344585 8.20174 0.782837V11.2073L5.69732 8.70283C5.38419 8.3897 4.88346 8.3897 4.60155 8.70283C4.28842 9.01597 4.28842 9.51669 4.60155 9.7986L8.42071 13.6178C8.57727 13.7743 8.76507 13.837 8.98408 13.837C9.20331 13.837 9.3911 13.7743 9.54745 13.6178L13.3668 9.79838C13.68 9.48524 13.68 8.98452 13.3668 8.70261C13.0537 8.38947 12.553 8.38947 12.2711 8.70261L9.76663 11.207L9.76685 0.782614C9.76685 0.344361 9.42249 0 8.98424 0L8.98436 0.000223481Z" fill="white"/>
</svg>
