<svg width="66" height="61" viewBox="0 0 66 61" fill="none" xmlns="http://www.w3.org/2000/svg">
<path d="M51.473 37.5551C51.8387 37.6641 54.4972 35.948 54.8531 35.8046C56.0868 35.0795 55.0374 33.2239 53.7799 33.909L50.9355 35.5186C49.963 36.0248 50.3987 37.597 51.4734 37.5556L51.473 37.5551Z" fill="#A4353B"/>
<path d="M56.6755 40.3968L53.4076 40.3681C52.7658 40.3424 52.314 40.8466 52.3086 41.4477C52.3033 42.0497 52.7867 42.5414 53.3882 42.5467L56.6561 42.5754C58.091 42.5559 58.1042 40.4343 56.675 40.3968H56.6755Z" fill="#A4353B"/>
<path d="M54.8399 47.5611L52.0243 45.9029C50.7794 45.1968 49.6964 47.0315 50.9189 47.7794C51.3016 47.9423 53.8843 49.693 54.286 49.5889C55.351 49.6297 55.7965 48.0799 54.8399 47.5611H54.8399Z" fill="#A4353B"/>
<path d="M58.8215 25.0536H47.9286V22.875H49.0179C50.8201 22.875 52.2858 21.4094 52.2858 19.6071V10.8929C52.2858 9.09062 50.8201 7.625 49.0179 7.625H47.8528C47.314 3.33346 43.6492 0 39.2143 0H8.71429C3.90923 0 0 3.90923 0 8.71429V52.2857C0 57.0908 3.90923 61 8.71429 61H39.2143C41.8694 61 44.3538 59.7818 45.9936 57.7321H58.8211C62.4249 57.7321 65.3568 54.8003 65.3568 51.1964V31.5893C65.3568 27.9854 62.4249 25.0536 58.8211 25.0536H58.8215ZM47.9286 9.80357H49.0179C49.6185 9.80357 50.1072 10.2923 50.1072 10.8929V19.6071C50.1072 20.2077 49.6185 20.6964 49.0179 20.6964H47.9286V9.80357ZM39.2143 58.8214H8.71434C5.11048 58.8214 2.17862 55.8896 2.17862 52.2857V8.71429C2.17862 5.11043 5.11048 2.17857 8.71434 2.17857H39.2143C42.8182 2.17857 45.7501 5.11043 45.7501 8.71429V25.0536H43.5715V9.80357C43.5715 6.80075 41.1279 4.35714 38.1251 4.35714H9.80362C6.8008 4.35714 4.35719 6.80075 4.35719 9.80357V51.1964C4.35719 54.1992 6.8008 56.6429 9.80362 56.6429H23.627C24.6613 57.3295 25.8999 57.7321 27.2318 57.7321H42.8179C41.7646 58.4295 40.5164 58.8214 39.2141 58.8214H39.2143ZM21.5804 54.4643H9.80337C8.00113 54.4643 6.53552 52.9987 6.53552 51.1964V9.80357C6.53552 8.00133 8.00113 6.53571 9.80337 6.53571H38.1248C39.927 6.53571 41.3927 8.00133 41.3927 9.80357V25.0536H40.8291L36.2546 19.3028C35.8407 18.7839 34.963 18.7839 34.5492 19.3028L29.9747 25.0536H27.2325C23.6287 25.0536 20.6968 27.9854 20.6968 31.5893V51.1964C20.6968 52.3873 21.0221 53.5015 21.5809 54.4643H21.5804ZM63.1786 51.1964C63.1786 53.5997 61.2238 55.5536 58.8215 55.5536H27.2322C24.8299 55.5536 22.875 53.5997 22.875 51.1964V31.5893C22.875 29.187 24.8299 27.2321 27.2322 27.2321H30.5001C30.8322 27.2321 31.1458 27.0804 31.3525 26.8212L35.4018 21.7312L39.4511 26.8212C39.6578 27.0809 39.9719 27.2321 40.3035 27.2321H58.8214C61.2237 27.2321 63.1785 29.187 63.1785 31.5893L63.1786 51.1964Z" fill="#A4353B"/>
<path d="M15.2491 13.0711H32.6777C34.1055 13.0483 34.1127 10.9174 32.6777 10.8926H15.2491C13.8229 10.9154 13.8131 13.0464 15.2491 13.0711Z" fill="#A4353B"/>
<path d="M10.8937 18.5184H28.3222C29.75 18.4956 29.7572 16.3646 28.3222 16.3398H10.8937C9.46739 16.3627 9.45768 18.4936 10.8937 18.5184Z" fill="#A4353B"/>
<path d="M29.4118 22.8744C29.4118 22.2729 28.9241 21.7852 28.3225 21.7852H10.894C10.2924 21.7852 9.80469 22.2729 9.80469 22.8744C9.80469 23.476 10.2924 23.9637 10.894 23.9637H28.3225C28.9241 23.9637 29.4118 23.476 29.4118 22.8744Z" fill="#A4353B"/>
<path d="M18.519 29.411C19.9487 29.3872 19.9527 27.2567 18.519 27.2324H10.894C9.4644 27.2563 9.46041 29.3867 10.894 29.411H18.519Z" fill="#A4353B"/>
<path d="M18.519 32.6777H10.894C9.4644 32.7011 9.46041 34.8325 10.894 34.8563H18.519C19.9487 34.833 19.9527 32.7015 18.519 32.6777Z" fill="#A4353B"/>
<path d="M18.519 38.125H10.894C9.4644 38.1483 9.46041 40.2798 10.894 40.3036H18.519C19.9487 40.2802 19.9527 38.1488 18.519 38.125Z" fill="#A4353B"/>
<path d="M18.519 43.5723H10.894C9.4644 43.5956 9.46041 45.7271 10.894 45.7508H18.519C19.9487 45.7275 19.9527 43.596 18.519 43.5723Z" fill="#A4353B"/>
<path d="M48.4334 32.3718C47.8893 31.956 47.1983 31.8218 46.5388 32.0022L38.3409 34.2382C36.9215 34.6248 35.8234 35.6956 35.3644 37.0348H32.9509C30.5486 37.0348 28.5938 38.9887 28.5938 41.392C28.5938 43.7953 30.5486 45.7491 32.9509 45.7491H35.3644C35.8234 47.0884 36.9215 48.1591 38.3404 48.5458L46.5383 50.7817C47.1914 50.9602 47.8883 50.8294 48.4334 50.4117C48.9781 49.9969 49.2903 49.3647 49.2903 48.68V34.1048C49.2903 33.4196 48.9781 32.7879 48.4334 32.3726V32.3718ZM35.1292 43.5705H32.9506C31.749 43.5705 30.7721 42.5931 30.7721 41.392C30.7721 40.1908 31.749 39.2134 32.9506 39.2134H35.1292V43.5705ZM38.9131 46.4435C37.9677 46.1863 37.3078 45.3221 37.3078 44.3427V38.4412C37.3078 37.4613 37.9677 36.5976 38.9135 36.3404L47.1114 34.1044L47.1118 48.6797L38.9131 46.4437L38.9131 46.4435Z" fill="#A4353B"/>
</svg>
