<svg width="149" height="44" viewBox="0 0 149 44" fill="none" xmlns="http://www.w3.org/2000/svg">
<path d="M142.769 44H5.49113C2.47104 44 0 41.525 0 38.5V5.50002C0 2.475 2.47099 0 5.49113 0H142.769C145.789 0 148.26 2.475 148.26 5.50002V38.5C148.26 41.525 145.789 44 142.769 44" fill="black"/>
<path d="M142.769 0H5.49113C2.47104 0 0 2.475 0 5.50002V38.5C0 41.525 2.47099 44 5.49113 44H142.769C145.789 44 148.26 41.525 148.26 38.5V5.50002C148.26 2.475 145.789 0 142.769 0M142.769 0.879972C145.313 0.879972 147.382 2.95285 147.382 5.50002V38.5C147.382 41.0476 145.313 43.1205 142.769 43.1205H5.49113C2.9481 43.1205 0.878588 41.0476 0.878588 38.5V5.50002C0.878588 2.95285 2.94806 0.880022 5.49113 0.880022H142.769" fill="#A6A6A6"/>
<path d="M52.0764 11.2683C52.0764 12.1899 51.8039 12.9238 51.2582 13.4713C50.6383 14.1223 49.8305 14.448 48.8374 14.448C47.8863 14.448 47.0777 14.118 46.4127 13.4571C45.7465 12.7967 45.4141 11.9777 45.4141 11.0006C45.4141 10.023 45.7465 9.20456 46.4127 8.54359C47.0777 7.88322 47.8863 7.55273 48.8374 7.55273C49.3093 7.55273 49.7611 7.64518 50.19 7.82953C50.619 8.01432 50.9631 8.25963 51.2205 8.56683L50.6413 9.14731C50.2051 8.62526 49.6045 8.36443 48.8374 8.36443C48.1438 8.36443 47.544 8.60855 47.0378 9.09709C46.5315 9.58611 46.2785 10.2203 46.2785 11.0006C46.2785 11.781 46.5315 12.4151 47.0378 12.9042C47.544 13.3927 48.1437 13.6368 48.8374 13.6368C49.5732 13.6368 50.1866 13.3914 50.6778 12.8999C50.9966 12.5796 51.1809 12.1346 51.2303 11.563H48.8373V10.7703H52.0304C52.0613 10.9427 52.0763 11.1081 52.0763 11.2683" fill="white"/>
<path d="M52.0768 11.267H51.9669C51.966 12.1676 51.7034 12.8671 51.1809 13.3922L51.1797 13.3931L51.1792 13.394C50.5791 14.0225 49.8076 14.3353 48.8377 14.3367C47.912 14.3353 47.1372 14.0191 46.4902 13.378C45.8447 12.7356 45.5255 11.9514 45.5242 10.9993C45.5255 10.0467 45.8447 9.2629 46.4902 8.62097C47.1372 7.97943 47.912 7.66274 48.8377 7.6614C49.2955 7.6614 49.7313 7.75088 50.147 7.92915C50.5631 8.1088 50.8918 8.34422 51.1367 8.63649L51.2208 8.5655L51.1432 8.48773L50.564 9.06861L50.6416 9.14598L50.7262 9.07559C50.2697 8.52768 49.6289 8.25148 48.8377 8.25311C48.1184 8.25222 47.4856 8.50968 46.9622 9.01676C46.4337 9.52546 46.1681 10.1953 46.169 10.9993C46.1681 11.8033 46.4337 12.4731 46.9622 12.9818C47.4856 13.4889 48.1184 13.7463 48.8377 13.7454C49.5979 13.7468 50.2457 13.4884 50.7558 12.9763C51.0964 12.6342 51.2895 12.1603 51.3401 11.5711L51.3503 11.4517H48.9475V10.8789H52.0308V10.7689L51.9226 10.7883C51.9527 10.9551 51.9669 11.1136 51.9669 11.267H52.1865C52.1865 11.0998 52.171 10.928 52.1389 10.7493L52.1226 10.6589H48.7279V11.6717H51.2307V11.5617L51.1213 11.5523C51.0729 12.1058 50.8969 12.5226 50.6005 12.8208C50.1286 13.2917 49.5495 13.5241 48.8377 13.5254C48.1698 13.5245 47.6031 13.2942 47.1145 12.8237C46.6306 12.3549 46.3899 11.7564 46.3887 10.9993C46.3899 10.2421 46.6306 9.64361 47.1145 9.1748C47.6031 8.70432 48.1698 8.47399 48.8377 8.4731C49.5804 8.47488 50.1411 8.72063 50.5577 9.21692L50.6349 9.30888L51.2985 8.64331L51.3697 8.57202L51.3049 8.495C51.0351 8.17282 50.6756 7.91709 50.2337 7.72725C49.791 7.53682 49.3238 7.44141 48.8377 7.44141C47.8614 7.44057 47.0189 7.7843 46.3354 8.46455C45.6495 9.14346 45.3038 9.99684 45.3047 10.9993C45.3038 12.0012 45.6495 12.8551 46.3359 13.5344C47.0189 14.2142 47.8614 14.5576 48.8377 14.5567C49.8545 14.5576 50.6979 14.2193 51.338 13.546L51.2585 13.47L51.3362 13.5478C51.9051 12.9784 52.1873 12.2093 52.1866 11.267H52.0767M57.1388 8.51008H54.138V10.6027H56.8441V11.3958H54.138V13.4884H57.1388V14.2993H53.292V7.69927H57.1388V8.51008Z" fill="white"/>
<path d="M57.1363 8.51065V8.40065H54.0257V10.7133H56.7318V11.2861L54.0256 11.2864V13.599H57.0264V14.1898H53.3993V7.80984H57.0264V8.51065H57.1363V8.40065V8.51065H57.2461V7.58984H53.1797V14.4098H57.2461V13.379H54.2452V11.5064H56.9514V10.4933H54.2452V8.62065H57.2461V8.51065H57.1363ZM60.7068 14.2999H59.8595V8.5106H58.0191V7.69979H62.5472V8.5106H60.7068V14.2998" fill="white"/>
<path d="M60.7076 14.2999V14.1898H59.9702V8.40065H58.1298V7.80989H62.4382V8.40065H60.5978V14.2998H60.7076V14.1898V14.2998H60.8175V8.62065H62.6579V7.58984H57.9102V8.6206H59.7505V14.4098H60.8175V14.2998H60.7076M65.8243 14.2999V7.69979H66.6707V14.2998H65.8243" fill="white"/>
<path d="M65.8246 14.2999H65.9345V7.80984H66.5612V14.1898H65.8246V14.2998H65.9345H65.8246V14.4098H66.7808V7.58984H65.7148V14.4098H65.8246V14.2998M70.4268 14.2999H69.5796V8.5106H67.7393V7.69979H72.2673V8.5106H70.4268V14.2998" fill="white"/>
<path d="M70.4263 14.3006V14.1906H69.6888V8.40141H67.8486V7.81065H72.1569V8.40141H70.3165V14.3006H70.4263V14.1906V14.3006H70.5361V8.62141H72.3765V7.5906H67.6289V8.62136H69.4692V14.4105H70.5361V14.3005H70.4263M76.6322 12.8952C77.1198 13.3897 77.7166 13.6367 78.4224 13.6367C79.1281 13.6367 79.7252 13.3897 80.2121 12.8952C80.7003 12.4006 80.9449 11.7684 80.9449 11.0006C80.9449 10.2328 80.7003 9.60065 80.2121 9.10608C79.7252 8.61152 79.1281 8.36443 78.4224 8.36443C77.7166 8.36443 77.1198 8.61152 76.6322 9.10608C76.1452 9.60065 75.9007 10.2328 75.9007 11.0006C75.9007 11.7684 76.1452 12.4006 76.6322 12.8952ZM80.8384 13.4477C80.1906 14.1149 79.385 14.448 78.4224 14.448C77.4588 14.448 76.6535 14.1149 76.0071 13.4477C75.3589 12.7812 75.0363 11.9653 75.0363 11.0006C75.0363 10.0359 75.3589 9.21989 76.0071 8.55353C76.6536 7.88613 77.4588 7.55273 78.4224 7.55273C79.3799 7.55273 80.1833 7.88791 80.8342 8.55783C81.4841 9.2277 81.8093 10.0419 81.8093 11.0006C81.8093 11.9653 81.4849 12.7812 80.8384 13.4477Z" fill="white"/>
<path d="M76.6314 12.8938L76.5533 12.9711C77.0592 13.4855 77.6902 13.7468 78.4216 13.7454C79.1526 13.7468 79.7845 13.4855 80.2895 12.9711C80.7987 12.4563 81.0547 11.7903 81.0539 10.9993C81.0547 10.2083 80.7987 9.54222 80.2895 9.02739C79.7845 8.51305 79.1526 8.25182 78.4216 8.25311C77.6902 8.25182 77.0592 8.51305 76.5533 9.02739C76.0454 9.54222 75.7888 10.2083 75.7902 10.9993C75.7888 11.7903 76.0454 12.4563 76.5533 12.9711L76.6314 12.8938L76.7096 12.8165C76.2437 12.3416 76.0107 11.7443 76.0098 10.9993C76.0107 10.2543 76.2437 9.65696 76.7095 9.18207C77.1797 8.70733 77.7412 8.47444 78.4216 8.47315C79.1015 8.47444 79.6644 8.70733 80.1333 9.18207C80.6001 9.65696 80.833 10.2543 80.8339 10.9993C80.833 11.7443 80.6001 12.3416 80.1333 12.8165C79.6644 13.2912 79.1016 13.5241 78.4216 13.5254C77.7412 13.5241 77.1797 13.2912 76.7095 12.8165L76.6314 12.8938ZM80.8377 13.4463L80.7592 13.3699C80.1295 14.0161 79.3594 14.3354 78.4216 14.3367C77.4834 14.3353 76.7134 14.0161 76.0848 13.3699L76.0819 13.3664L76.0848 13.3699C75.4564 12.7214 75.1463 11.9395 75.1454 10.9993C75.1463 10.0591 75.4564 9.27709 76.0848 8.62868C76.7134 7.98239 77.4834 7.66274 78.4216 7.66145C79.3534 7.66274 80.1217 7.98373 80.7549 8.63338C81.3855 9.2848 81.6974 10.0656 81.6988 10.9993C81.6974 11.9395 81.3864 12.7214 80.7592 13.3699L80.8377 13.4463L80.9167 13.5228C81.5824 12.8379 81.9191 11.9884 81.9184 10.9993C81.9192 10.0158 81.5811 9.16798 80.9123 8.48007C80.2431 7.78944 79.4049 7.44022 78.4216 7.44141C77.4333 7.44022 76.5924 7.78781 75.9275 8.47577V8.47528C75.2604 9.16062 74.9249 10.0101 74.9258 10.9993C74.9249 11.9884 75.2604 12.8379 75.9275 13.5232L75.9304 13.5263L75.9275 13.5228C76.5924 14.2107 77.4333 14.5576 78.4216 14.5567C79.4096 14.5576 80.2504 14.2107 80.9167 13.5228L80.8377 13.4463ZM82.9968 14.2993V7.69922H84.0273L87.2297 12.8336H87.2662L87.2297 11.5617V7.69922H88.077V14.2992H87.1932L83.8428 8.91605H83.8063L83.8428 10.1884V14.2992H82.9969" fill="white"/>
<path d="M82.9998 14.2999H83.1097V7.80984H83.9694L87.1718 12.9442H87.382L87.3426 11.5606V7.80989H87.9702V14.1898H87.2572L83.9068 8.80668H83.6966L83.736 10.1908V14.1898H82.9999V14.2998H83.1097H82.9999V14.4098H83.9557V10.1873L83.9192 8.91371L83.8094 8.91667V9.02667H83.8459V8.91667L83.7527 8.97516L87.1354 14.4098H88.1899V7.58984H87.123V11.5636L87.1594 12.8371L87.2692 12.8342V12.7242H87.2328V12.8342L87.3259 12.7758L84.0912 7.58984H82.8901V14.4098H82.9999V14.2998M117.441 32.9998H119.49V19.2485H117.441L117.441 32.9998ZM135.899 24.2021L133.55 30.164H133.479L131.041 24.202H128.834L132.49 32.5349L130.405 37.17H132.544L138.178 24.202L135.899 24.2021ZM124.277 31.438C123.605 31.438 122.669 31.1019 122.669 30.2701C122.669 29.2087 123.836 28.8018 124.842 28.8018C125.743 28.8018 126.166 28.9964 126.714 29.2621C126.555 30.5356 125.46 31.438 124.277 31.438ZM124.524 23.9012C123.041 23.9012 121.504 24.556 120.868 26.0067L122.687 26.7673C123.076 26.0067 123.8 25.7588 124.56 25.7588C125.619 25.7588 126.697 26.396 126.714 27.5282V27.6696C126.343 27.4573 125.549 27.1389 124.577 27.1389C122.617 27.1389 120.62 28.2178 120.62 30.2348C120.62 32.0748 122.228 33.2602 124.029 33.2602C125.407 33.2602 126.166 32.641 126.644 31.9158H126.714V32.9771H128.692V27.7048C128.692 25.2638 126.873 23.9012 124.524 23.9012ZM111.86 25.876H108.945V21.1624H111.86C113.392 21.1624 114.262 22.433 114.262 23.5192C114.262 24.5848 113.392 25.876 111.86 25.876ZM111.807 19.2485H106.897V32.9998H108.945V27.7899H111.807C114.078 27.7899 116.311 26.1429 116.311 23.5192C116.311 20.8956 114.078 19.2485 111.807 19.2485ZM85.0311 31.4405C83.6154 31.4405 82.4301 30.2533 82.4301 28.6226C82.4301 26.9748 83.6154 25.7695 85.0311 25.7695C86.4289 25.7695 87.5258 26.9748 87.5258 28.6226C87.5258 30.2533 86.4289 31.4405 85.0312 31.4405H85.0311ZM87.3842 24.9721H87.3134C86.8535 24.4228 85.9685 23.9266 84.854 23.9266C82.5185 23.9266 80.3779 25.9822 80.3779 28.6226C80.3779 31.2455 82.5185 33.2835 84.854 33.2835C85.9685 33.2835 86.8535 32.7871 87.3134 32.2204H87.3842V32.8937C87.3842 34.6838 86.4289 35.6407 84.8896 35.6407C83.6334 35.6407 82.8549 34.7366 82.5361 33.9748L80.7494 34.719C81.2625 35.9595 82.6249 37.4837 84.8896 37.4837C87.2958 37.4837 89.3305 36.0657 89.3305 32.6101V24.2102H87.3842V24.9721ZM90.7458 32.9998H92.7981V19.248H90.7458V32.9998ZM95.8237 28.4632C95.7706 26.6555 97.2214 25.7342 98.2652 25.7342C99.0796 25.7342 99.7693 26.1416 99.9988 26.7269L95.8237 28.4632ZM102.193 26.9039C101.804 25.858 100.618 23.9266 98.1943 23.9266C95.7882 23.9266 93.789 25.8228 93.789 28.605C93.789 31.2279 95.7706 33.2835 98.4243 33.2835C100.566 33.2835 101.804 31.972 102.317 31.2101L100.725 30.1467C100.194 30.9266 99.4684 31.4405 98.4243 31.4405C97.3806 31.4405 96.6376 30.9619 96.1596 30.0229L102.405 27.4354L102.193 26.9039ZM52.4345 25.3621V27.3469H57.1761C57.0346 28.4632 56.663 29.2783 56.0968 29.8455C55.407 30.5369 54.3277 31.2987 52.4345 31.2987C49.5151 31.2987 47.2329 28.9418 47.2329 26.0178C47.2329 23.0938 49.5151 20.7366 52.4345 20.7366C54.0093 20.7366 55.159 21.357 56.0084 22.1545L57.4061 20.7546C56.2208 19.6202 54.6459 18.7519 52.4345 18.7519C48.4358 18.7519 45.0742 22.0127 45.0742 26.0178C45.0742 30.0229 48.4358 33.2835 52.4345 33.2835C54.5932 33.2835 56.2208 32.5749 57.4945 31.2455C58.8038 29.934 59.2109 28.0911 59.2109 26.6027C59.2109 26.1416 59.1757 25.7166 59.1045 25.3621H52.4345ZM64.6016 31.4405C63.1859 31.4405 61.965 30.2708 61.965 28.605C61.965 26.9215 63.1859 25.7695 64.6016 25.7695C66.0168 25.7695 67.2377 26.9215 67.2377 28.605C67.2377 30.2709 66.0168 31.4405 64.6016 31.4405ZM64.6016 23.9266C62.0182 23.9266 59.9127 25.8936 59.9127 28.605C59.9127 31.2987 62.0182 33.2835 64.6016 33.2835C67.1846 33.2835 69.2901 31.2987 69.2901 28.605C69.2901 25.8936 67.1846 23.9266 64.6016 23.9266ZM74.8296 31.4405C73.4145 31.4405 72.1934 30.2708 72.1934 28.605C72.1934 26.9215 73.4145 25.7695 74.8296 25.7695C76.2449 25.7695 77.4658 26.9215 77.4658 28.605C77.4658 30.2709 76.2449 31.4405 74.8296 31.4405H74.8296ZM74.8296 23.9266C72.2463 23.9266 70.1412 25.8936 70.1412 28.605C70.1412 31.2987 72.2463 33.2835 74.8296 33.2835C77.4127 33.2835 79.5182 31.2987 79.5182 28.605C79.5182 25.8936 77.4127 23.9266 74.8296 23.9266H74.8296Z" fill="white"/>
<path d="M11.5417 8.37271C11.1731 8.70576 10.9531 9.26128 10.9531 9.99868V9.83198V34.1652V34.0049C10.9531 34.6859 11.1418 35.2118 11.4614 35.5505L11.543 35.6287V35.6291C11.8016 35.8628 12.1333 35.987 12.5134 35.9866C12.8848 35.9866 13.3027 35.868 13.7437 35.6175L29.6847 26.5455L35.1603 23.429C35.8557 23.0333 36.2461 22.5228 36.3114 22.0028V22.0007C36.2461 21.4795 35.8557 20.9695 35.1603 20.5737L29.6842 17.4576L13.7438 8.38556C13.3018 8.13467 12.8836 8.01562 12.5112 8.01562C12.1315 8.01562 11.8003 8.13936 11.5418 8.37271H11.5417Z" fill="#00C1FF"/>
<path d="M11.543 35.6289L11.4614 35.5507C11.1418 35.2121 10.9531 34.6861 10.9531 34.0051V34.1654V9.8382V9.99887C10.9531 9.26148 11.1731 8.70596 11.5417 8.3729L25.1485 22.0014L11.543 35.6289Z" fill="url(#paint0_linear_380_30004)"/>
<path d="M29.6846 26.5449L25.1484 22.0006L29.6842 17.457L35.1603 20.5731C35.8557 20.9689 36.2461 21.479 36.3113 22.0002V22.0022C36.2461 22.5222 35.8557 23.0327 35.1603 23.4284L29.6847 26.5449" fill="url(#paint1_linear_380_30004)"/>
<path d="M12.5133 35.9863C12.1332 35.9867 11.8016 35.8625 11.543 35.6288V35.6284L25.1484 22.0009L29.6846 26.5452L13.7436 35.6172C13.3026 35.8677 12.8847 35.9863 12.5133 35.9863Z" fill="url(#paint2_linear_380_30004)"/>
<path d="M25.1459 22.002L11.5391 8.37351C11.7977 8.14017 12.1289 8.01643 12.5086 8.01643C12.881 8.01643 13.2992 8.13542 13.7411 8.38636L29.6817 17.4584L25.1459 22.002" fill="url(#paint3_linear_380_30004)"/>
<path d="M12.5133 36.1465C12.1332 36.1465 11.8011 36.0223 11.5425 35.7886L11.542 35.789C11.5409 35.7879 11.5398 35.7869 11.5386 35.786L11.4679 35.7168C11.4656 35.7146 11.4636 35.7121 11.4609 35.7096L11.5425 35.6278C11.8012 35.8616 12.1328 35.9858 12.5129 35.9853C12.8843 35.9853 13.3022 35.8668 13.7432 35.6163L29.6842 26.5443L29.7863 26.6466L29.6829 26.7054L13.7432 35.7769C13.3413 36.0051 12.959 36.1241 12.6137 36.144C12.5802 36.1456 12.5468 36.1464 12.5133 36.1464" fill="url(#paint4_linear_380_30004)"/>
<path d="M11.4614 35.7109C11.1418 35.3723 10.9531 34.8468 10.9531 34.1654V34.0051C10.9531 34.6861 11.1418 35.212 11.4614 35.5507L11.543 35.6289L11.4614 35.7109Z" fill="url(#paint5_linear_380_30004)"/>
<path d="M29.7857 26.6464L29.6836 26.5441L35.1592 23.4276C35.8546 23.032 36.245 22.5214 36.3103 22.0015C36.3103 22.1923 36.2678 22.3831 36.1833 22.5688C36.013 22.943 35.6716 23.2966 35.1592 23.5883L29.7857 26.6465" fill="url(#paint6_linear_380_30004)"/>
<path d="M36.3107 22C36.2455 21.4788 35.8551 20.9688 35.1597 20.573L29.6836 17.4569L29.7857 17.3545H29.7862L35.1597 20.4127C35.9264 20.8493 36.3103 21.4246 36.3107 22Z" fill="url(#paint7_linear_380_30004)"/>
<path d="M10.9531 9.99805V9.82996C10.9531 9.76935 10.9548 9.71008 10.9579 9.65253V9.64991C10.9579 9.64912 10.9579 9.64828 10.9582 9.64739V9.64092C10.9912 9.05435 11.1731 8.59681 11.4614 8.2913L11.5417 8.37203C11.1731 8.70513 10.9531 9.26065 10.9531 9.99805Z" fill="url(#paint8_linear_380_30004)"/>
<path d="M29.6837 17.457L13.7432 8.38491C13.3013 8.13402 12.8831 8.01503 12.5107 8.01503C12.1311 8.01503 11.7998 8.13877 11.5412 8.37211L11.4609 8.29133C11.486 8.26474 11.5121 8.2391 11.539 8.21446C11.5399 8.21357 11.5412 8.21268 11.5421 8.21184C11.7986 7.98027 12.1264 7.85653 12.5026 7.85431H12.5107C12.8831 7.85431 13.3013 7.97335 13.7432 8.22434L29.7863 17.3544L29.7859 17.3547L29.6837 17.457Z" fill="url(#paint9_linear_380_30004)"/>
<defs>
<linearGradient id="paint0_linear_380_30004" x1="19.6487" y1="9.58109" x2="7.92268" y2="21.326" gradientUnits="userSpaceOnUse">
<stop stop-color="#00A0FF"/>
<stop offset="0.00657" stop-color="#00A1FF"/>
<stop offset="0.2601" stop-color="#00BEFF"/>
<stop offset="0.5122" stop-color="#00D2FF"/>
<stop offset="0.7604" stop-color="#00DFFF"/>
<stop offset="1" stop-color="#00E3FF"/>
</linearGradient>
<linearGradient id="paint1_linear_380_30004" x1="37.1586" y1="21.9221" x2="10.5849" y2="21.9221" gradientUnits="userSpaceOnUse">
<stop stop-color="#FFE000"/>
<stop offset="0.4087" stop-color="#FFBD00"/>
<stop offset="0.7754" stop-color="#FFA500"/>
<stop offset="1" stop-color="#FF9C00"/>
</linearGradient>
<linearGradient id="paint2_linear_380_30004" x1="27.2763" y1="26.3214" x2="7.40571" y2="46.0786" gradientUnits="userSpaceOnUse">
<stop stop-color="#FF3A44"/>
<stop offset="1" stop-color="#C31162"/>
</linearGradient>
<linearGradient id="paint3_linear_380_30004" x1="8.0322" y1="6.35303" x2="16.8881" y2="15.1719" gradientUnits="userSpaceOnUse">
<stop stop-color="#32A071"/>
<stop offset="0.0685" stop-color="#2DA771"/>
<stop offset="0.4762" stop-color="#15CF74"/>
<stop offset="0.8009" stop-color="#06E775"/>
<stop offset="1" stop-color="#00F076"/>
</linearGradient>
<linearGradient id="paint4_linear_380_30004" x1="27.266" y1="29.4727" x2="11.3526" y2="45.4118" gradientUnits="userSpaceOnUse">
<stop stop-color="#CC2E36"/>
<stop offset="1" stop-color="#9C0E4E"/>
</linearGradient>
<linearGradient id="paint5_linear_380_30004" x1="12.7658" y1="9.58102" x2="2.43531" y2="19.9283" gradientUnits="userSpaceOnUse">
<stop stop-color="#008DE0"/>
<stop offset="0.00657" stop-color="#008DE0"/>
<stop offset="0.2601" stop-color="#00A7E0"/>
<stop offset="0.5122" stop-color="#00B8E0"/>
<stop offset="0.7604" stop-color="#00C4E0"/>
<stop offset="1" stop-color="#00C7E0"/>
</linearGradient>
<linearGradient id="paint6_linear_380_30004" x1="37.1576" y1="22.0005" x2="10.5838" y2="22.0005" gradientUnits="userSpaceOnUse">
<stop stop-color="#E0C500"/>
<stop offset="0.4087" stop-color="#E0A600"/>
<stop offset="0.7754" stop-color="#E09100"/>
<stop offset="1" stop-color="#E08900"/>
</linearGradient>
<linearGradient id="paint7_linear_380_30004" x1="37.158" y1="22.0011" x2="10.5843" y2="22.0011" gradientUnits="userSpaceOnUse">
<stop stop-color="#FFE840"/>
<stop offset="0.4087" stop-color="#FFCE40"/>
<stop offset="0.7754" stop-color="#FFBC40"/>
<stop offset="1" stop-color="#FFB540"/>
</linearGradient>
<linearGradient id="paint8_linear_380_30004" x1="12.7545" y1="9.59895" x2="2.8045" y2="19.1333" gradientUnits="userSpaceOnUse">
<stop stop-color="#40B8FF"/>
<stop offset="0.00657" stop-color="#40B9FF"/>
<stop offset="0.2601" stop-color="#40CEFF"/>
<stop offset="0.5122" stop-color="#40DDFF"/>
<stop offset="0.7604" stop-color="#40E7FF"/>
<stop offset="1" stop-color="#40EAFF"/>
</linearGradient>
<linearGradient id="paint9_linear_380_30004" x1="8.01448" y1="9.23378" x2="15.1205" y2="16.3514" gradientUnits="userSpaceOnUse">
<stop stop-color="#65B895"/>
<stop offset="0.0685" stop-color="#62BD95"/>
<stop offset="0.4762" stop-color="#50DB97"/>
<stop offset="0.8009" stop-color="#44ED98"/>
<stop offset="1" stop-color="#40F498"/>
</linearGradient>
</defs>
</svg>
