<svg width="27" height="26" viewBox="0 0 27 26" fill="none" xmlns="http://www.w3.org/2000/svg">
<path d="M24.8376 23.2048C24.525 23.7497 24.1856 24.2779 23.8206 24.7881C23.2909 25.5298 22.5382 25.7852 21.686 25.5044C20.7233 25.1866 19.7722 24.8339 18.8229 24.4777C18.0037 24.1705 17.8041 23.5908 18.239 22.7741C19.3566 20.6762 20.258 18.4905 20.8096 16.1655C20.9449 15.5933 21.0356 15.0106 21.1489 14.4343C21.3125 13.5995 21.8514 13.2688 22.6528 13.5306C23.3159 13.7425 23.9704 13.9862 24.7145 14.2447C24.6353 9.82221 22.9349 6.36459 19.2883 4.12042C15.3337 1.68346 11.2362 1.73645 7.3279 4.25589C3.81436 6.52108 2.19195 9.92978 2.11278 14.2484C2.84127 13.9824 3.47201 13.7428 4.1098 13.5184C4.97583 13.2142 5.54296 13.5396 5.68645 14.4509C6.14027 17.3298 7.15158 20.006 8.49635 22.5618C9.06874 23.6479 8.87621 24.1406 7.72325 24.556C6.92488 24.8444 6.12871 25.1411 5.32964 25.4173C4.28888 25.7753 3.5957 25.5551 2.93602 24.6627C1.14824 22.2258 0.248016 19.4709 0.150963 16.4418C0.0844312 14.3597 0.0230995 12.2807 0.598466 10.2369C2.32602 4.10324 8.05105 -0.070465 14.1917 0.360623C20.6047 0.810931 25.8039 5.65845 26.5527 12.1153C27.0021 15.938 26.8224 19.7369 24.8376 23.2048Z" fill="white"/>
</svg>
