<svg width="13" height="12" viewBox="0 0 13 12" fill="none" xmlns="http://www.w3.org/2000/svg">
<path d="M11.948 10.8559C11.797 11.1145 11.633 11.3652 11.4566 11.6073C11.2007 11.9593 10.837 12.0805 10.4252 11.9472C9.96012 11.7964 9.50056 11.629 9.04188 11.46C8.64606 11.3142 8.54963 11.039 8.75975 10.6515C9.29976 9.65587 9.73527 8.61856 10.0018 7.51517C10.0672 7.24364 10.111 6.96707 10.1658 6.69357C10.2448 6.2974 10.5052 6.14045 10.8924 6.26471C11.2128 6.36528 11.529 6.48093 11.8885 6.60359C11.8503 4.50478 11.0287 2.86386 9.26677 1.79882C7.35598 0.642289 5.37619 0.667437 3.4878 1.86311C1.79015 2.93813 1.00624 4.55582 0.967993 6.60536C1.31998 6.47911 1.62474 6.36543 1.9329 6.25893C2.35134 6.11454 2.62537 6.26899 2.6947 6.70144C2.91397 8.06775 3.40261 9.33779 4.05236 10.5507C4.32893 11.0661 4.2359 11.3 3.67882 11.4972C3.29307 11.634 2.90838 11.7748 2.52229 11.9059C2.01943 12.0758 1.6845 11.9713 1.36576 11.5478C0.501951 10.3913 0.0669878 9.08385 0.020094 7.64628C-0.0120522 6.6582 -0.041686 5.67154 0.236316 4.70158C1.07103 1.79067 3.83721 -0.19009 6.8042 0.0144959C9.90278 0.228203 12.4149 2.52874 12.7767 5.59302C12.9938 7.40721 12.907 9.21008 11.948 10.8559Z" fill="white"/>
</svg>
