<svg width="10" height="9" viewBox="0 0 10 9" fill="none" xmlns="http://www.w3.org/2000/svg">
<path fill-rule="evenodd" clip-rule="evenodd" d="M3.18024 0C2.36614 0 1.55287 0.309202 0.928757 0.929311C0.379162 1.47558 0.0505304 2.20375 0.00536149 2.97535C-0.0398074 3.74696 0.201637 4.50825 0.683777 5.1143C1.48538 6.10083 3.68603 8.0573 4.59679 8.85482C4.81844 9.04881 5.18008 9.04798 5.40089 8.85482C6.29665 8.06476 8.44481 6.14059 9.31557 5.11592C9.79787 4.5102 10.0396 3.74924 9.99471 2.97778C9.94985 2.20632 9.62155 1.47818 9.07226 0.931841C8.54398 0.404831 7.84546 0.0805649 7.10013 0.0163942C6.35481 -0.0477764 5.61068 0.152302 4.99926 0.581186C4.4674 0.206202 3.8321 0.00383639 3.18024 0.00172038V0Z" fill="url(#paint0_linear_380_30059)"/>
<defs>
<linearGradient id="paint0_linear_380_30059" x1="0.000499186" y1="4.49995" x2="9.99969" y2="4.49995" gradientUnits="userSpaceOnUse">
<stop stop-color="#79222a"/>
<stop offset="1" stop-color="#79222a"/>
</linearGradient>
</defs>
</svg>
