<svg width="25" height="25" viewBox="0 0 25 25" fill="none" xmlns="http://www.w3.org/2000/svg">
<path d="M19.8522 5.5961C19.8522 4.7983 19.2056 4.15411 18.4108 4.15411C17.6159 4.15411 16.9688 4.7983 16.9688 5.5961C16.9688 6.39097 17.6159 7.03516 18.4108 7.03516C19.2056 7.03516 19.8522 6.39097 19.8522 5.5961Z" fill="#A4353B"/>
<path d="M21.7713 16.8528C21.7179 18.0231 21.5221 18.659 21.3596 19.0813C21.1413 19.6413 20.8809 20.0417 20.4586 20.4616C20.041 20.8816 19.6406 21.1414 19.0806 21.3573C18.6583 21.5222 18.02 21.7185 16.8497 21.7743C15.5845 21.8301 15.2096 21.842 12.0011 21.842C8.7956 21.842 8.41772 21.8301 7.15248 21.7743C5.98218 21.7185 5.34689 21.5222 4.92452 21.3573C4.36161 21.1414 3.9642 20.8816 3.54423 20.4616C3.12128 20.0417 2.86089 19.6413 2.64557 19.0813C2.48301 18.659 2.28433 18.0231 2.23388 16.8528C2.17222 15.5875 2.16092 15.2067 2.16092 12.0048C2.16092 8.79627 2.17222 8.41839 2.23388 7.15315C2.28433 5.98285 2.48301 5.34756 2.64557 4.92163C2.86089 4.36228 3.12128 3.96424 3.54423 3.54428C3.9642 3.12493 4.36161 2.8645 4.92452 2.64624C5.34689 2.48075 5.98218 2.28736 7.15248 2.23161C8.41772 2.17583 8.7956 2.16159 12.0011 2.16159C15.2096 2.16159 15.5845 2.17583 16.8497 2.23161C18.02 2.28736 18.6583 2.48075 19.0806 2.64624C19.6406 2.8645 20.041 3.12493 20.4586 3.54428C20.8809 3.96424 21.1413 4.36228 21.3596 4.92163C21.5221 5.34756 21.7179 5.98285 21.7713 7.15315C21.83 8.41839 21.8442 8.79627 21.8442 12.0048C21.8442 15.2067 21.83 15.5875 21.7713 16.8528ZM23.9322 7.0547C23.8735 5.7758 23.6718 4.90205 23.3723 4.14104C23.0674 3.35151 22.6587 2.68241 21.9896 2.01331C21.3234 1.34719 20.6543 0.938478 19.8648 0.630043C19.1008 0.333441 18.23 0.129374 16.9505 0.0736294C15.6711 0.0119247 15.2624 0.000667572 12.0011 0.000667572C8.7428 0.000667572 8.33115 0.0119247 7.05167 0.0736294C5.77513 0.129374 4.90494 0.333441 4.13739 0.630043C3.35084 0.938478 2.68174 1.34719 2.01562 2.01331C1.34652 2.68241 0.937809 3.35151 0.629951 4.14104C0.333349 4.90205 0.131685 5.7758 0.0699797 7.0547C0.0142362 8.33418 0 8.74347 0 12.0048C0 15.2631 0.0142362 15.6717 0.0699797 16.9512C0.131685 18.2277 0.333349 19.1009 0.629951 19.8655C0.937809 20.652 1.34652 21.3241 2.01562 21.9902C2.68174 22.6564 3.35084 23.0681 4.13739 23.3759C4.90494 23.6725 5.77513 23.8742 7.05167 23.9329C8.33115 23.9916 8.7428 24.0059 12.0011 24.0059C15.2624 24.0059 15.6711 23.9916 16.9505 23.9329C18.23 23.8742 19.1008 23.6725 19.8648 23.3759C20.6543 23.0681 21.3234 22.6564 21.9896 21.9902C22.6587 21.3241 23.0674 20.652 23.3723 19.8655C23.6718 19.1009 23.8735 18.2277 23.9322 16.9512C23.991 15.6717 24.0052 15.2631 24.0052 12.0048C24.0052 8.74347 23.991 8.33418 23.9322 7.0547Z" fill="#A4353B"/>
<path d="M12.005 15.9982C9.79665 15.9982 8.00467 14.2092 8.00467 12.0008C8.00467 9.78883 9.79665 7.99747 12.005 7.99747C14.214 7.99747 16.0084 9.78883 16.0084 12.0008C16.0084 14.2092 14.214 15.9982 12.005 15.9982ZM12.005 5.83357C8.60081 5.83357 5.84375 8.59655 5.84375 12.0008C5.84375 15.4021 8.60081 18.1621 12.005 18.1621C15.4093 18.1621 18.1693 15.4021 18.1693 12.0008C18.1693 8.59655 15.4093 5.83357 12.005 5.83357Z" fill="#A4353B"/>
</svg>
