<svg width="32" height="32" viewBox="0 0 32 32" fill="none" xmlns="http://www.w3.org/2000/svg">
<g clip-path="url(#clip0_380_30029)">
<path d="M2.00045 2.17772C-0.514219 4.78972 0.000447351 7.56439 0.000447351 15.9937C0.000447351 24.4417 -0.210219 25.9924 0.803114 28.0937C1.64978 29.8511 3.26711 31.1711 5.17111 31.6631C6.69645 32.055 7.70978 32.0004 15.9711 32.0004C22.8965 32.0004 25.0511 32.1244 26.8471 31.6604C29.5085 30.9737 31.6738 28.8151 31.9698 25.0511C32.0111 24.5257 32.0111 7.47105 31.9685 6.93505C31.6538 2.92572 29.1858 0.615054 25.9338 0.147054C25.1871 0.0390541 25.0378 0.00705404 21.2138 0.000387378C7.64978 0.00705404 4.67645 -0.596946 2.00045 2.17772Z" fill="url(#paint0_linear_380_30029)"/>
<path d="M15.9958 4.18523C11.1545 4.18523 6.55712 3.75456 4.80112 8.26123C4.07578 10.1226 4.18112 12.5399 4.18112 16.0012C4.18112 19.0386 4.08378 21.8932 4.80112 23.7399C6.55312 28.2492 11.1878 27.8172 15.9931 27.8172C20.6291 27.8172 25.4091 28.2999 27.1865 23.7399C27.9131 21.8599 27.8065 19.4786 27.8065 16.0012C27.8065 11.3852 28.0611 8.40523 25.8225 6.1679C23.5558 3.90123 20.4905 4.18523 15.9905 4.18523H15.9958ZM14.9371 6.31456C20.7318 6.30523 25.3518 5.50523 25.6118 11.2252C25.7078 13.3439 25.7078 18.6532 25.6118 20.7719C25.3598 26.2879 21.1598 25.6826 15.9971 25.6826C11.4478 25.6826 9.19178 25.8439 7.67178 24.3226C6.12912 22.7799 6.31312 20.5746 6.31312 15.9959C6.31312 10.5679 5.79978 6.6279 11.2238 6.37856C12.3131 6.32923 12.7358 6.31456 14.9371 6.3119V6.31456ZM22.3025 8.2759C21.5198 8.2759 20.8851 8.91056 20.8851 9.69323C20.8851 10.4759 21.5198 11.1106 22.3025 11.1106C23.0851 11.1106 23.7198 10.4759 23.7198 9.69323C23.7198 8.91056 23.0851 8.2759 22.3025 8.2759ZM15.9958 9.93323C12.6451 9.93323 9.92912 12.6506 9.92912 16.0012C9.92912 19.3519 12.6451 22.0679 15.9958 22.0679C19.3465 22.0679 22.0611 19.3519 22.0611 16.0012C22.0611 12.6506 19.3465 9.93323 15.9958 9.93323ZM15.9958 12.0626C18.1705 12.0626 19.9331 13.8266 19.9331 16.0012C19.9331 18.1759 18.1705 19.9399 15.9958 19.9399C13.8211 19.9399 12.0585 18.1759 12.0585 16.0012C12.0585 13.8252 13.8211 12.0626 15.9958 12.0626Z" fill="white"/>
</g>
<defs>
<linearGradient id="paint0_linear_380_30029" x1="2.08653" y1="29.9248" x2="31.7904" y2="4.21533" gradientUnits="userSpaceOnUse">
<stop stop-color="#FFDD55"/>
<stop offset="0.5" stop-color="#FF543E"/>
<stop offset="1" stop-color="#C837AB"/>
</linearGradient>
<clipPath id="clip0_380_30029">
<rect width="32" height="32" fill="white"/>
</clipPath>
</defs>
</svg>
