<svg width="339" height="52" viewBox="0 0 339 52" fill="none" xmlns="http://www.w3.org/2000/svg">
<path d="M82.2915 40.0302C82.2915 40.2463 82.2435 40.4263 82.1475 40.5704C82.0635 40.7024 81.9494 40.8104 81.8054 40.8944C81.6614 40.9665 81.4933 41.0205 81.3013 41.0565C81.1212 41.0805 80.9292 41.0925 80.7251 41.0925H78.4746C78.0905 41.0925 77.8204 40.9905 77.6644 40.7864C77.5204 40.5824 77.4123 40.3243 77.3403 40.0122L77.2323 38.4819C76.8122 38.902 76.3441 39.2981 75.828 39.6702C75.3238 40.0302 74.7777 40.3483 74.1896 40.6244C73.6014 40.8884 72.9773 41.0925 72.3171 41.2365C71.657 41.3926 70.9788 41.4706 70.2826 41.4706C69.2024 41.4706 68.1581 41.3325 67.1499 41.0565C66.1536 40.7684 65.2174 40.3723 64.3412 39.8682C63.465 39.3521 62.6668 38.7339 61.9466 38.0138C61.2385 37.2936 60.6263 36.4954 60.1102 35.6192C59.6061 34.743 59.21 33.8007 58.9219 32.7925C58.6458 31.7843 58.5078 30.734 58.5078 29.6417C58.5078 28.5495 58.6458 27.4992 58.9219 26.491C59.21 25.4828 59.6061 24.5405 60.1102 23.6643C60.6263 22.7881 61.2385 21.9959 61.9466 21.2877C62.6668 20.5676 63.465 19.9554 64.3412 19.4513C65.2174 18.9352 66.1536 18.5391 67.1499 18.263C68.1581 17.975 69.2024 17.8309 70.2826 17.8309C71.0508 17.8309 71.783 17.9149 72.4792 18.083C73.1753 18.239 73.8235 18.4671 74.4236 18.7671C75.0358 19.0552 75.5999 19.4093 76.116 19.8294C76.6322 20.2375 77.1003 20.6876 77.5204 21.1797L77.7724 19.2533C77.8324 19.0372 77.8865 18.8632 77.9345 18.7311C77.9945 18.5871 78.0605 18.4731 78.1325 18.3891C78.2165 18.305 78.3186 18.251 78.4386 18.227C78.5586 18.191 78.7087 18.173 78.8887 18.173H80.6891C80.8812 18.173 81.0732 18.191 81.2653 18.227C81.4573 18.263 81.6314 18.323 81.7874 18.4071C81.9434 18.4791 82.0635 18.5871 82.1475 18.7311C82.2435 18.8632 82.2915 19.0312 82.2915 19.2353V40.0302ZM63.567 29.6417C63.567 30.602 63.7351 31.5142 64.0711 32.3784C64.4072 33.2306 64.8753 33.9808 65.4755 34.6289C66.0756 35.2771 66.7778 35.7932 67.582 36.1773C68.3982 36.5494 69.2864 36.7354 70.2466 36.7354C71.2189 36.7354 72.1251 36.5494 72.9653 36.1773C73.8175 35.7932 74.5557 35.2771 75.1798 34.6289C75.804 33.9808 76.2961 33.2306 76.6562 32.3784C77.0163 31.5142 77.1963 30.602 77.1963 29.6417C77.1963 28.6935 77.0163 27.7933 76.6562 26.9411C76.2961 26.0769 75.804 25.3207 75.1798 24.6726C74.5557 24.0244 73.8175 23.5083 72.9653 23.1242C72.1251 22.7401 71.2189 22.548 70.2466 22.548C69.2864 22.548 68.3982 22.7401 67.582 23.1242C66.7778 23.5083 66.0756 24.0244 65.4755 24.6726C64.8753 25.3207 64.4072 26.0769 64.0711 26.9411C63.7351 27.7933 63.567 28.6935 63.567 29.6417ZM106.888 40.3903C106.888 40.5224 106.84 40.6244 106.744 40.6964C106.66 40.7684 106.552 40.8224 106.42 40.8584C106.288 40.8824 106.144 40.9004 105.988 40.9124C105.832 40.9124 105.694 40.9124 105.574 40.9124H103.755C103.407 40.9124 103.149 40.8044 102.981 40.5884C102.813 40.3603 102.699 40.1023 102.639 39.8142L102.441 38.1758C102.177 38.5719 101.847 38.956 101.451 39.3281C101.055 39.6882 100.587 40.0122 100.046 40.3003C99.5063 40.5764 98.8822 40.7984 98.174 40.9665C97.4779 41.1345 96.6857 41.2185 95.7975 41.2185C94.3691 41.2185 93.1088 40.9665 92.0166 40.4623C90.9243 39.9462 90.0061 39.2501 89.2619 38.3738C88.5297 37.4856 87.9717 36.4414 87.5876 35.2411C87.2035 34.0408 87.0115 32.7505 87.0115 31.3702V19.3613C87.0115 18.9292 87.1135 18.6051 87.3175 18.3891C87.5216 18.161 87.8157 18.047 88.1998 18.047H90.9363C91.4164 18.047 91.7345 18.137 91.8905 18.317C92.0586 18.4971 92.1426 18.8152 92.1426 19.2713V31.2801C92.1426 31.9163 92.2386 32.5404 92.4307 33.1526C92.6347 33.7527 92.9348 34.2929 93.3309 34.773C93.727 35.2531 94.2191 35.6372 94.8072 35.9253C95.4074 36.2133 96.1035 36.3574 96.8957 36.3574C97.4479 36.3574 98.024 36.2613 98.6241 36.0693C99.2243 35.8772 99.7704 35.5832 100.263 35.1871C100.755 34.791 101.163 34.2989 101.487 33.7107C101.811 33.1106 101.973 32.4144 101.973 31.6222V19.9374C101.973 19.7214 101.985 19.5053 102.009 19.2893C102.033 19.0612 102.081 18.8572 102.153 18.6771C102.237 18.4851 102.345 18.335 102.477 18.227C102.621 18.107 102.813 18.047 103.053 18.047H106.024C106.42 18.047 106.708 18.143 106.888 18.335C107.08 18.5271 107.176 18.7972 107.176 19.1452V39.8502C107.176 40.0903 107.08 40.2703 106.888 40.3903ZM129.887 38.4819C129.467 38.902 128.999 39.2981 128.482 39.6702C127.978 40.0422 127.432 40.3663 126.844 40.6424C126.268 40.9064 125.65 41.1165 124.99 41.2725C124.342 41.4286 123.663 41.5066 122.955 41.5066C121.335 41.5066 119.822 41.2005 118.418 40.5884C117.026 39.9642 115.807 39.118 114.763 38.0498C113.731 36.9815 112.921 35.7332 112.333 34.3049C111.744 32.8645 111.45 31.3282 111.45 29.6958C111.45 28.0514 111.744 26.515 112.333 25.0867C112.921 23.6463 113.731 22.392 114.763 21.3238C115.807 20.2555 117.026 19.4153 118.418 18.8032C119.822 18.179 121.335 17.8669 122.955 17.8669C124.42 17.8669 125.71 18.131 126.826 18.6591C127.942 19.1752 128.933 19.8834 129.797 20.7836V12.5196C129.797 12.2076 129.893 11.9495 130.085 11.7455C130.277 11.5414 130.553 11.4394 130.913 11.4394H133.866C134.142 11.4394 134.4 11.5414 134.64 11.7455C134.88 11.9375 135 12.1956 135 12.5196V40.0122C135 40.7324 134.616 41.0925 133.848 41.0925H131.147C130.787 41.0925 130.541 41.0025 130.409 40.8224C130.277 40.6424 130.157 40.3723 130.049 40.0122L129.887 38.4819ZM116.51 29.6958C116.51 30.656 116.678 31.5682 117.014 32.4324C117.35 33.2846 117.818 34.0288 118.418 34.665C119.018 35.3011 119.72 35.8052 120.525 36.1773C121.341 36.5494 122.229 36.7354 123.189 36.7354C124.137 36.7354 125.032 36.5554 125.872 36.1953C126.712 35.8232 127.444 35.3251 128.068 34.701C128.693 34.0648 129.185 33.3326 129.545 32.5044C129.917 31.6642 130.115 30.77 130.139 29.8218V29.6958C130.139 28.7475 129.959 27.8413 129.599 26.9771C129.239 26.1129 128.747 25.3567 128.122 24.7086C127.498 24.0484 126.76 23.5263 125.908 23.1422C125.068 22.7461 124.161 22.548 123.189 22.548C122.229 22.548 121.341 22.7461 120.525 23.1422C119.72 23.5263 119.018 24.0484 118.418 24.7086C117.818 25.3567 117.35 26.1129 117.014 26.9771C116.678 27.8413 116.51 28.7475 116.51 29.6958ZM139.864 19.3253C139.864 19.0132 139.954 18.7551 140.134 18.5511C140.314 18.335 140.578 18.227 140.926 18.227H143.915C144.047 18.227 144.179 18.257 144.311 18.317C144.455 18.365 144.581 18.4431 144.689 18.5511C144.797 18.6471 144.887 18.7611 144.959 18.8932C145.031 19.0252 145.067 19.1692 145.067 19.3253V40.0122C145.067 40.7324 144.689 41.0925 143.933 41.0925H140.944C140.224 41.0925 139.864 40.7324 139.864 40.0122V19.3253ZM139.864 11.3674C139.864 10.6472 140.218 10.2871 140.926 10.2871H143.951C144.287 10.2871 144.557 10.3771 144.761 10.5572C144.965 10.7372 145.067 11.0073 145.067 11.3674V14.05C145.067 14.3261 144.971 14.5901 144.779 14.8422C144.587 15.0823 144.317 15.2023 143.969 15.2023H140.944C140.224 15.2023 139.864 14.8182 139.864 14.05V11.3674Z" fill="white"/>
<path d="M161.583 17.7871C158.428 17.7871 155.426 19.0571 153.194 21.2506C150.962 23.4826 149.73 26.4843 149.73 29.64C149.73 32.7956 151 35.7973 153.194 38.0293C155.426 40.2613 158.428 41.4928 161.583 41.4928C164.739 41.4928 167.741 40.2228 169.973 38.0293C172.205 35.7973 173.436 32.7956 173.436 29.64C173.436 27.5619 172.897 25.5222 171.858 23.7135C170.819 21.9048 169.318 20.404 167.51 19.3649C165.701 18.3644 163.661 17.7871 161.583 17.7871ZM166.124 31.1023L160.66 34.7582C160.313 34.9891 159.89 35.0661 159.505 35.0276C159.082 34.9891 158.736 34.7582 158.466 34.4504C158.197 34.1425 158.043 33.7577 158.043 33.3343V26.061C158.043 25.6377 158.197 25.2529 158.466 24.945C158.736 24.6371 159.12 24.4447 159.505 24.3677C159.929 24.3293 160.313 24.4062 160.66 24.6371L166.124 28.293C166.586 28.6009 166.894 29.1397 166.894 29.7169C166.894 30.2942 166.586 30.7944 166.124 31.1023Z" fill="white"/>
<path d="M183.129 12.5196C183.129 12.2076 183.213 11.9495 183.381 11.7455C183.549 11.5414 183.807 11.4394 184.155 11.4394H187.306C187.546 11.4394 187.768 11.5414 187.972 11.7455C188.188 11.9495 188.296 12.2076 188.296 12.5196V40.0122C188.296 40.3723 188.194 40.6424 187.99 40.8224C187.798 41.0025 187.534 41.0925 187.198 41.0925H184.191C183.807 41.0925 183.531 41.0025 183.363 40.8224C183.207 40.6424 183.129 40.3723 183.129 40.0122V12.5196ZM216.281 40.0302C216.281 40.2463 216.233 40.4263 216.137 40.5704C216.053 40.7024 215.939 40.8104 215.795 40.8944C215.651 40.9665 215.483 41.0205 215.291 41.0565C215.111 41.0805 214.919 41.0925 214.715 41.0925H212.464C212.08 41.0925 211.81 40.9905 211.654 40.7864C211.51 40.5824 211.402 40.3243 211.33 40.0122L211.222 38.4819C210.802 38.902 210.334 39.2981 209.818 39.6702C209.313 40.0302 208.767 40.3483 208.179 40.6244C207.591 40.8884 206.967 41.0925 206.307 41.2365C205.647 41.3926 204.968 41.4706 204.272 41.4706C203.192 41.4706 202.148 41.3325 201.14 41.0565C200.143 40.7684 199.207 40.3723 198.331 39.8682C197.455 39.3521 196.656 38.7339 195.936 38.0138C195.228 37.2936 194.616 36.4954 194.1 35.6192C193.596 34.743 193.2 33.8007 192.912 32.7925C192.635 31.7843 192.497 30.734 192.497 29.6417C192.497 28.5495 192.635 27.4992 192.912 26.491C193.2 25.4828 193.596 24.5405 194.1 23.6643C194.616 22.7881 195.228 21.9959 195.936 21.2877C196.656 20.5676 197.455 19.9554 198.331 19.4513C199.207 18.9352 200.143 18.5391 201.14 18.263C202.148 17.975 203.192 17.8309 204.272 17.8309C205.04 17.8309 205.773 17.9149 206.469 18.083C207.165 18.239 207.813 18.4671 208.413 18.7671C209.025 19.0552 209.59 19.4093 210.106 19.8294C210.622 20.2375 211.09 20.6876 211.51 21.1797L211.762 19.2533C211.822 19.0372 211.876 18.8632 211.924 18.7311C211.984 18.5871 212.05 18.4731 212.122 18.3891C212.206 18.305 212.308 18.251 212.428 18.227C212.548 18.191 212.698 18.173 212.878 18.173H214.679C214.871 18.173 215.063 18.191 215.255 18.227C215.447 18.263 215.621 18.323 215.777 18.4071C215.933 18.4791 216.053 18.5871 216.137 18.7311C216.233 18.8632 216.281 19.0312 216.281 19.2353V40.0302ZM197.557 29.6417C197.557 30.602 197.725 31.5142 198.061 32.3784C198.397 33.2306 198.865 33.9808 199.465 34.6289C200.065 35.2771 200.767 35.7932 201.572 36.1773C202.388 36.5494 203.276 36.7354 204.236 36.7354C205.208 36.7354 206.115 36.5494 206.955 36.1773C207.807 35.7932 208.545 35.2771 209.169 34.6289C209.794 33.9808 210.286 33.2306 210.646 32.3784C211.006 31.5142 211.186 30.602 211.186 29.6417C211.186 28.6935 211.006 27.7933 210.646 26.9411C210.286 26.0769 209.794 25.3207 209.169 24.6726C208.545 24.0244 207.807 23.5083 206.955 23.1242C206.115 22.7401 205.208 22.548 204.236 22.548C203.276 22.548 202.388 22.7401 201.572 23.1242C200.767 23.5083 200.065 24.0244 199.465 24.6726C198.865 25.3207 198.397 26.0769 198.061 26.9411C197.725 27.7933 197.557 28.6935 197.557 29.6417ZM223.432 34.6469C223.684 35.043 224.002 35.3851 224.386 35.6732C224.77 35.9613 225.16 36.2013 225.556 36.3934C225.964 36.5734 226.349 36.7054 226.709 36.7895C227.081 36.8735 227.375 36.9155 227.591 36.9155C227.927 36.9155 228.323 36.8795 228.779 36.8075C229.235 36.7354 229.661 36.6094 230.057 36.4294C230.466 36.2373 230.808 35.9853 231.084 35.6732C231.372 35.3491 231.516 34.941 231.516 34.4489C231.516 33.9688 231.402 33.5787 231.174 33.2786C230.958 32.9785 230.658 32.7325 230.273 32.5404C229.901 32.3364 229.469 32.1684 228.977 32.0363C228.497 31.9043 227.987 31.7603 227.447 31.6042C226.187 31.2681 225.112 30.866 224.224 30.3979C223.336 29.9178 222.604 29.3717 222.028 28.7595C221.463 28.1474 221.049 27.4752 220.785 26.7431C220.521 26.0109 220.389 25.2127 220.389 24.3485C220.389 23.3762 220.581 22.488 220.965 21.6838C221.349 20.8796 221.889 20.1895 222.586 19.6133C223.282 19.0372 224.116 18.5931 225.088 18.281C226.072 17.9569 227.159 17.7949 228.347 17.7949C229.187 17.7949 229.937 17.8729 230.598 18.029C231.258 18.173 231.87 18.3951 232.434 18.6951C232.998 18.9952 233.526 19.3733 234.018 19.8294C234.523 20.2855 235.033 20.8196 235.549 21.4318C235.729 21.6478 235.819 21.8579 235.819 22.0619C235.819 22.278 235.699 22.482 235.459 22.6741C235.279 22.8181 235.063 22.9982 234.811 23.2142C234.571 23.4303 234.33 23.6403 234.09 23.8444C233.85 24.0484 233.622 24.2224 233.406 24.3665C233.19 24.5105 233.01 24.5825 232.866 24.5825C232.602 24.5825 232.344 24.4265 232.092 24.1144C231.828 23.8023 231.564 23.5323 231.3 23.3042C231.036 23.0642 230.76 22.8721 230.472 22.7281C230.183 22.5721 229.871 22.458 229.535 22.386C229.199 22.302 228.833 22.26 228.437 22.26C228.113 22.26 227.771 22.308 227.411 22.404C227.063 22.5 226.739 22.6441 226.439 22.8361C226.151 23.0282 225.904 23.2622 225.7 23.5383C225.508 23.8023 225.412 24.1024 225.412 24.4385C225.412 24.8226 225.532 25.1527 225.772 25.4287C226.024 25.6928 226.337 25.9269 226.709 26.1309C227.093 26.323 227.507 26.485 227.951 26.617C228.395 26.7491 228.809 26.8691 229.193 26.9771C230.298 27.2892 231.312 27.6493 232.236 28.0574C233.16 28.4655 233.952 28.9636 234.613 29.5517C235.285 30.1279 235.807 30.812 236.179 31.6042C236.551 32.3844 236.737 33.3026 236.737 34.3589C236.737 35.4751 236.515 36.4774 236.071 37.3656C235.627 38.2418 235.009 38.986 234.216 39.5981C233.436 40.2103 232.506 40.6784 231.426 41.0025C230.358 41.3265 229.193 41.4886 227.933 41.4886C227.177 41.4886 226.409 41.4046 225.628 41.2365C224.848 41.0805 224.098 40.8344 223.378 40.4983C222.67 40.1503 222.01 39.7122 221.397 39.184C220.797 38.6439 220.293 38.0078 219.885 37.2756C219.705 36.9755 219.615 36.7054 219.615 36.4654C219.615 36.3093 219.651 36.1773 219.723 36.0693C219.807 35.9493 219.915 35.8352 220.047 35.7272L222.064 34.1788C222.244 34.0708 222.406 34.0168 222.55 34.0168C222.718 34.0168 222.868 34.0768 223 34.1968C223.132 34.3049 223.276 34.4549 223.432 34.6469ZM240.764 19.3253C240.764 19.0132 240.854 18.7551 241.034 18.5511C241.214 18.335 241.478 18.227 241.826 18.227H244.815C244.947 18.227 245.079 18.257 245.211 18.317C245.355 18.365 245.481 18.4431 245.589 18.5511C245.697 18.6471 245.787 18.7611 245.859 18.8932C245.931 19.0252 245.967 19.1692 245.967 19.3253V40.0122C245.967 40.7324 245.589 41.0925 244.833 41.0925H241.844C241.124 41.0925 240.764 40.7324 240.764 40.0122V19.3253ZM240.764 11.3674C240.764 10.6472 241.118 10.2871 241.826 10.2871H244.851C245.187 10.2871 245.457 10.3771 245.661 10.5572C245.865 10.7372 245.967 11.0073 245.967 11.3674V14.05C245.967 14.3261 245.871 14.5901 245.679 14.8422C245.487 15.0823 245.217 15.2023 244.869 15.2023H241.844C241.124 15.2023 240.764 14.8182 240.764 14.05V11.3674ZM260.051 41.0925C259.102 41.0805 258.208 40.9365 257.368 40.6604C256.54 40.3843 255.814 39.9882 255.189 39.4721C254.577 38.944 254.091 38.3018 253.731 37.5456C253.371 36.7775 253.191 35.9072 253.191 34.935V31.9643V22.7821H251.12C250.772 22.7821 250.508 22.7041 250.328 22.548C250.16 22.392 250.076 22.1339 250.076 21.7739V19.1812C250.076 18.8332 250.16 18.5871 250.328 18.4431C250.508 18.299 250.772 18.227 251.12 18.227H253.191C253.191 17.5909 253.191 16.9607 253.191 16.3366C253.203 15.7004 253.209 15.0643 253.209 14.4281C253.209 14.188 253.281 14.002 253.425 13.87C253.581 13.7259 253.815 13.5999 254.127 13.4919C254.331 13.4199 254.577 13.3358 254.865 13.2398C255.153 13.1318 255.447 13.0298 255.747 12.9337C256.06 12.8377 256.36 12.7597 256.648 12.6997C256.936 12.6277 257.176 12.5917 257.368 12.5917C257.74 12.5917 257.98 12.6937 258.088 12.8977C258.208 13.1018 258.268 13.3718 258.268 13.7079C258.268 14.4641 258.262 15.2203 258.25 15.9765C258.25 16.7207 258.25 17.4708 258.25 18.227H260.843C261.155 18.227 261.395 18.311 261.563 18.4791C261.731 18.6351 261.815 18.8872 261.815 19.2353V21.7018C261.815 22.0859 261.731 22.362 261.563 22.53C261.395 22.6981 261.155 22.7821 260.843 22.7821H258.25C258.25 23.5623 258.25 24.2225 258.25 24.7626C258.25 25.3027 258.25 25.7828 258.25 26.2029C258.25 26.611 258.25 26.9951 258.25 27.3552C258.262 27.7153 258.268 28.1054 258.268 28.5255C258.268 28.9456 258.268 29.4257 258.268 29.9658C258.268 30.506 258.268 31.1661 258.268 31.9463C258.268 31.9703 258.262 31.9943 258.25 32.0183C258.25 32.0423 258.25 32.0663 258.25 32.0903V34.4489C258.25 35.2411 258.406 35.8112 258.718 36.1593C259.03 36.5074 259.534 36.6814 260.231 36.6814C260.483 36.6814 260.681 36.7715 260.825 36.9515C260.969 37.1315 261.041 37.3476 261.041 37.5997V40.1023C261.041 40.4143 260.951 40.6604 260.771 40.8404C260.603 41.0085 260.363 41.0925 260.051 41.0925ZM288.334 40.0302C288.334 40.2463 288.286 40.4263 288.19 40.5704C288.106 40.7024 287.992 40.8104 287.848 40.8944C287.704 40.9665 287.536 41.0205 287.344 41.0565C287.164 41.0805 286.971 41.0925 286.767 41.0925H284.517C284.133 41.0925 283.863 40.9905 283.707 40.7864C283.563 40.5824 283.455 40.3243 283.383 40.0122L283.275 38.4819C282.854 38.902 282.386 39.2981 281.87 39.6702C281.366 40.0302 280.82 40.3483 280.232 40.6244C279.644 40.8884 279.02 41.0925 278.359 41.2365C277.699 41.3926 277.021 41.4706 276.325 41.4706C275.245 41.4706 274.2 41.3325 273.192 41.0565C272.196 40.7684 271.26 40.3723 270.383 39.8682C269.507 39.3521 268.709 38.7339 267.989 38.0138C267.281 37.2936 266.669 36.4954 266.152 35.6192C265.648 34.743 265.252 33.8007 264.964 32.7925C264.688 31.7843 264.55 30.734 264.55 29.6417C264.55 28.5495 264.688 27.4992 264.964 26.491C265.252 25.4828 265.648 24.5405 266.152 23.6643C266.669 22.7881 267.281 21.9959 267.989 21.2877C268.709 20.5676 269.507 19.9554 270.383 19.4513C271.26 18.9352 272.196 18.5391 273.192 18.263C274.2 17.975 275.245 17.8309 276.325 17.8309C277.093 17.8309 277.825 17.9149 278.521 18.083C279.218 18.239 279.866 18.4671 280.466 18.7671C281.078 19.0552 281.642 19.4093 282.158 19.8294C282.674 20.2375 283.143 20.6876 283.563 21.1797L283.815 19.2533C283.875 19.0372 283.929 18.8632 283.977 18.7311C284.037 18.5871 284.103 18.4731 284.175 18.3891C284.259 18.305 284.361 18.251 284.481 18.227C284.601 18.191 284.751 18.173 284.931 18.173H286.731C286.923 18.173 287.115 18.191 287.308 18.227C287.5 18.263 287.674 18.323 287.83 18.4071C287.986 18.4791 288.106 18.5871 288.19 18.7311C288.286 18.8632 288.334 19.0312 288.334 19.2353V40.0302ZM269.609 29.6417C269.609 30.602 269.777 31.5142 270.113 32.3784C270.45 33.2306 270.918 33.9808 271.518 34.6289C272.118 35.2771 272.82 35.7932 273.624 36.1773C274.44 36.5494 275.329 36.7354 276.289 36.7354C277.261 36.7354 278.167 36.5494 279.008 36.1773C279.86 35.7932 280.598 35.2771 281.222 34.6289C281.846 33.9808 282.338 33.2306 282.698 32.3784C283.059 31.5142 283.239 30.602 283.239 29.6417C283.239 28.6935 283.059 27.7933 282.698 26.9411C282.338 26.0769 281.846 25.3207 281.222 24.6726C280.598 24.0244 279.86 23.5083 279.008 23.1242C278.167 22.7401 277.261 22.548 276.289 22.548C275.329 22.548 274.44 22.7401 273.624 23.1242C272.82 23.5083 272.118 24.0244 271.518 24.6726C270.918 25.3207 270.45 26.0769 270.113 26.9411C269.777 27.7933 269.609 28.6935 269.609 29.6417ZM291.073 19.6854C291.073 19.6854 291.067 19.6614 291.055 19.6133C291.043 19.5653 291.025 19.5053 291.001 19.4333C290.989 19.3613 290.977 19.2833 290.965 19.1992C290.953 19.1152 290.947 19.0432 290.947 18.9832C290.947 18.7551 291.025 18.5751 291.181 18.4431C291.349 18.299 291.595 18.227 291.919 18.227H295.16C295.448 18.227 295.682 18.299 295.862 18.4431C296.042 18.5871 296.186 18.7911 296.294 19.0552L296.618 19.8654C296.859 20.5496 297.129 21.3178 297.429 22.17C297.741 23.0222 298.059 23.9044 298.383 24.8166C298.707 25.7168 299.031 26.617 299.355 27.5172C299.679 28.4055 299.985 29.2457 300.273 30.0378C300.561 30.818 300.819 31.5142 301.048 32.1263C301.276 32.7265 301.456 33.1886 301.588 33.5127C301.792 32.9245 302.026 32.2524 302.29 31.4962C302.566 30.728 302.86 29.9178 303.172 29.0656C303.484 28.2014 303.802 27.3132 304.126 26.401C304.45 25.4888 304.768 24.5945 305.08 23.7183C305.393 22.8421 305.687 22.0079 305.963 21.2157C306.251 20.4115 306.509 19.6854 306.737 19.0372C306.857 18.7491 307.001 18.5451 307.169 18.4251C307.349 18.293 307.589 18.227 307.889 18.227H311.256C311.628 18.227 311.88 18.287 312.012 18.4071C312.156 18.5271 312.228 18.6831 312.228 18.8752C312.228 18.9712 312.21 19.0912 312.174 19.2353C312.15 19.3793 312.126 19.4873 312.102 19.5593L303.532 40.3723C303.436 40.5404 303.316 40.7024 303.172 40.8584C303.04 41.0145 302.788 41.0925 302.416 41.0925H300.759C300.327 41.0925 300.033 41.0205 299.877 40.8764C299.733 40.7204 299.625 40.5524 299.553 40.3723L291.073 19.6854ZM338.162 40.0302C338.162 40.2463 338.114 40.4263 338.018 40.5704C337.934 40.7024 337.82 40.8104 337.676 40.8944C337.532 40.9665 337.364 41.0205 337.172 41.0565C336.992 41.0805 336.8 41.0925 336.596 41.0925H334.345C333.961 41.0925 333.691 40.9905 333.535 40.7864C333.391 40.5824 333.283 40.3243 333.211 40.0122L333.103 38.4819C332.683 38.902 332.215 39.2981 331.698 39.6702C331.194 40.0302 330.648 40.3483 330.06 40.6244C329.472 40.8884 328.848 41.0925 328.188 41.2365C327.527 41.3926 326.849 41.4706 326.153 41.4706C325.073 41.4706 324.029 41.3325 323.02 41.0565C322.024 40.7684 321.088 40.3723 320.212 39.8682C319.335 39.3521 318.537 38.7339 317.817 38.0138C317.109 37.2936 316.497 36.4954 315.981 35.6192C315.477 34.743 315.08 33.8007 314.792 32.7925C314.516 31.7843 314.378 30.734 314.378 29.6417C314.378 28.5495 314.516 27.4992 314.792 26.491C315.08 25.4828 315.477 24.5405 315.981 23.6643C316.497 22.7881 317.109 21.9959 317.817 21.2877C318.537 20.5676 319.335 19.9554 320.212 19.4513C321.088 18.9352 322.024 18.5391 323.02 18.263C324.029 17.975 325.073 17.8309 326.153 17.8309C326.921 17.8309 327.653 17.9149 328.35 18.083C329.046 18.239 329.694 18.4671 330.294 18.7671C330.906 19.0552 331.47 19.4093 331.986 19.8294C332.503 20.2375 332.971 20.6876 333.391 21.1797L333.643 19.2533C333.703 19.0372 333.757 18.8632 333.805 18.7311C333.865 18.5871 333.931 18.4731 334.003 18.3891C334.087 18.305 334.189 18.251 334.309 18.227C334.429 18.191 334.579 18.173 334.759 18.173H336.56C336.752 18.173 336.944 18.191 337.136 18.227C337.328 18.263 337.502 18.323 337.658 18.4071C337.814 18.4791 337.934 18.5871 338.018 18.7311C338.114 18.8632 338.162 19.0312 338.162 19.2353V40.0302ZM319.437 29.6417C319.437 30.602 319.605 31.5142 319.942 32.3784C320.278 33.2306 320.746 33.9808 321.346 34.6289C321.946 35.2771 322.648 35.7932 323.452 36.1773C324.269 36.5494 325.157 36.7354 326.117 36.7354C327.089 36.7354 327.995 36.5494 328.836 36.1773C329.688 35.7932 330.426 35.2771 331.05 34.6289C331.674 33.9808 332.166 33.2306 332.527 32.3784C332.887 31.5142 333.067 30.602 333.067 29.6417C333.067 28.6935 332.887 27.7933 332.527 26.9411C332.166 26.0769 331.674 25.3207 331.05 24.6726C330.426 24.0244 329.688 23.5083 328.836 23.1242C327.995 22.7401 327.089 22.548 326.117 22.548C325.157 22.548 324.269 22.7401 323.452 23.1242C322.648 23.5083 321.946 24.0244 321.346 24.6726C320.746 25.3207 320.278 26.0769 319.942 26.9411C319.605 27.7933 319.437 28.6935 319.437 29.6417Z" fill="white"/>
<path d="M37.5319 7.49485C37.4272 7.43776 37.3035 7.39969 37.2084 7.33308C34.8198 5.66778 32.1934 4.56393 29.3196 4.05958C25.3038 3.35539 21.4308 3.82168 17.7006 5.46794C16.5396 5.98181 15.4548 6.60986 14.4175 7.33308C14.1796 7.50437 13.9513 7.51388 13.6943 7.37114C12.9806 6.96196 12.2669 6.56228 11.5532 6.16261C11.1726 5.94374 11.144 5.74391 11.4771 5.45843C14.2463 3.0033 17.4151 1.29042 21.0407 0.53866C28.1872 -0.964866 34.5629 0.681401 40.1202 5.44891C40.1964 5.51552 40.2725 5.58214 40.3201 5.65826C40.4152 5.81052 40.3677 5.99132 40.1964 6.08648C39.4065 6.53374 38.6167 6.98099 37.8174 7.41872C37.7317 7.4663 37.6366 7.4663 37.5319 7.49485Z" fill="white"/>
<path d="M47.3123 27.7811C47.3123 30.3219 47.3123 32.8627 47.3123 35.4034C47.3123 36.6976 46.3988 37.6207 45.1141 37.6302C44.6003 37.6397 44.0959 37.6397 43.5821 37.6302C42.6305 37.6207 41.9453 36.926 41.9453 35.9744C41.9453 31.3401 41.9453 26.7058 41.9453 22.062C41.9453 21.1295 42.64 20.4348 43.5821 20.4253C43.9817 20.4253 44.3814 20.4253 44.7811 20.4253C45.352 20.4253 45.7136 20.0732 45.7136 19.4927C45.7232 18.6077 45.7136 17.7323 45.7136 16.8473C45.7136 16.086 45.7136 15.3247 45.7136 14.5539C45.7136 14.3921 45.7612 14.2494 45.942 14.2875C46.0277 14.297 46.1228 14.4207 46.1514 14.5063C46.5225 15.5436 46.789 16.6094 46.9888 17.6942C47.2362 19.055 47.3314 20.4253 47.3218 21.8146C47.3123 23.8035 47.3123 25.7923 47.3123 27.7811Z" fill="white"/>
<path d="M4.30011 27.7837C4.30011 25.6426 4.29059 23.5015 4.30011 21.3604C4.30962 19.048 4.69026 16.7927 5.43251 14.5945C5.45154 14.5279 5.46106 14.4422 5.50864 14.4042C5.56573 14.3471 5.66089 14.2805 5.7275 14.29C5.79412 14.2995 5.86073 14.3947 5.89879 14.4613C5.92734 14.5088 5.90831 14.585 5.90831 14.6516C5.90831 16.2312 5.90831 17.8014 5.90831 19.381C5.90831 20.1042 6.23185 20.4278 6.95507 20.4373C7.32619 20.4468 7.70683 20.4278 8.05892 20.5039C9.02004 20.7228 9.66713 21.5887 9.66713 22.5784C9.66713 27.0509 9.66713 31.5234 9.66713 35.996C9.66713 36.9095 9.00101 37.6042 8.07796 37.6327C7.507 37.6517 6.94555 37.6517 6.37459 37.6327C5.19461 37.5946 4.30011 36.6621 4.30011 35.4821C4.29059 32.9128 4.29059 30.353 4.30011 27.7837Z" fill="white"/>
<path d="M3.20689 29.0185C3.20689 30.9502 3.20689 32.882 3.20689 34.8137C3.20689 35.2991 3.0356 35.4799 2.55029 35.4703C2.26481 35.4703 1.96981 35.4799 1.69385 35.4228C0.704183 35.2324 0 34.3665 0 33.3578C0 30.4744 0 27.5911 0 24.7078C0 23.5183 0.951599 22.5762 2.1411 22.5762C2.29335 22.5762 2.44561 22.5762 2.60738 22.5762C3.01657 22.5762 3.21641 22.776 3.21641 23.1852C3.20689 25.1265 3.20689 27.0772 3.20689 29.0185Z" fill="white"/>
<path d="M48.4085 29.0205C48.4085 27.2125 48.418 25.4044 48.399 23.6059C48.3895 22.6829 48.4942 22.5496 49.4362 22.5877C49.8359 22.5972 50.2165 22.6734 50.5591 22.8827C51.2348 23.3014 51.6154 23.9009 51.6154 24.7003C51.6249 27.5931 51.6249 30.486 51.6154 33.3693C51.6154 34.5113 50.7019 35.4343 49.5599 35.4724C49.3791 35.4819 49.1983 35.4724 49.0175 35.4724C48.6083 35.4724 48.4085 35.282 48.4085 34.8729C48.4085 33.6263 48.4085 32.3797 48.4085 31.1331C48.4085 30.4289 48.4085 29.7247 48.4085 29.0205Z" fill="white"/>
<path d="M43.512 12.7577C43.512 14.3754 43.512 15.9931 43.512 17.6108C43.512 18.0771 43.3407 18.2579 42.8744 18.2769C41.1235 18.3436 39.7627 19.7424 39.7627 21.4934C39.7532 26.4988 39.7532 31.5042 39.7627 36.5191C39.7627 38.3367 41.0949 39.707 42.903 39.8021C43.3502 39.8212 43.512 39.9924 43.512 40.4397C43.512 40.7252 43.5025 41.0107 43.512 41.3056C43.531 41.8005 43.3121 42.1431 42.8839 42.381C39.8769 44.0558 36.8793 45.7496 33.8818 47.4339C31.5409 48.7472 29.1999 50.0699 26.8495 51.3831C26.1358 51.7828 25.403 51.7923 24.6893 51.3831C19.3794 48.4046 14.079 45.407 8.75958 42.4381C8.24571 42.1526 7.97926 41.7719 8.01733 41.1724C8.03636 40.906 8.01733 40.6395 8.01733 40.3731C8.01733 40.002 8.20765 39.8021 8.57877 39.7926C10.0728 39.7355 11.2718 38.8125 11.6524 37.4326C11.7286 37.1567 11.7666 36.8712 11.7666 36.5857C11.7761 31.5518 11.7761 26.5178 11.7666 21.4838C11.7666 19.7424 10.3963 18.3436 8.6549 18.2769C8.16958 18.2579 8.00781 18.0866 8.00781 17.6013C8.00781 14.3564 8.00781 11.1209 8.00781 7.87597C8.00781 7.22888 8.49313 6.95292 9.06409 7.26695C14.5738 10.3596 20.0836 13.4619 25.5934 16.5641C25.7076 16.6307 25.7932 16.6402 25.9169 16.5641C31.2839 13.538 36.651 10.5214 42.018 7.50485C42.1702 7.4192 42.3225 7.33356 42.4747 7.24791C43.0076 6.95292 43.493 7.2384 43.5025 7.84742C43.512 9.48417 43.512 11.1209 43.512 12.7577Z" fill="white"/>
<circle cx="25.7821" cy="29.4032" r="6.58288" fill="#461719"/>
<path d="M23.6437 32.4069C23.7248 32.4529 23.8144 32.4757 23.9039 32.4757C24.0027 32.4757 24.1014 32.4478 24.1883 32.3924L28.0521 29.9239C28.209 29.8236 28.3043 29.6479 28.3043 29.4587C28.3043 29.2695 28.2091 29.0938 28.0521 28.9935L24.1883 26.5248C24.023 26.4191 23.8144 26.4135 23.6437 26.5102C23.473 26.6068 23.3672 26.7905 23.3672 26.9899V31.9271C23.3672 32.1266 23.473 32.3103 23.6437 32.4069V32.4069Z" fill="white"/>
</svg>
