<svg width="18" height="13" viewBox="0 0 18 13" fill="none" xmlns="http://www.w3.org/2000/svg">
<path fill-rule="evenodd" clip-rule="evenodd" d="M11.5634 7.11328L10.5078 8.18142C10.1058 8.58753 9.56084 8.81588 8.99276 8.81588C8.42468 8.81588 7.87969 8.58751 7.47775 8.18142L6.42208 7.11328L0.726562 12.8737C0.89799 12.9564 1.08692 13.0006 1.28058 13.0006H16.7046C16.8983 13.0006 17.0872 12.9564 17.2587 12.8737L11.5634 7.11328Z" fill="#A4353B"/>
<path fill-rule="evenodd" clip-rule="evenodd" d="M17.8752 0.738281C17.957 0.911661 18.0007 1.10274 18.0007 1.29861V11.6984C18.0007 11.8943 17.957 12.0854 17.8752 12.2587L12.1797 6.49836L17.8752 0.738281Z" fill="#A4353B"/>
<path fill-rule="evenodd" clip-rule="evenodd" d="M0.125523 0.738281L5.82104 6.49866L0.125523 12.259C0.0437529 12.0857 0 11.8946 0 11.6987V1.2989C0 1.10304 0.0437529 0.911958 0.125523 0.738578V0.738281Z" fill="#A4353B"/>
<path fill-rule="evenodd" clip-rule="evenodd" d="M17.2587 0.126952C17.0872 0.0442512 16.8983 0 16.7046 0H1.28058C1.08692 0 0.89799 0.0442512 0.726562 0.126952L8.08384 7.56765C8.3247 7.81168 8.65163 7.9485 8.99261 7.9485C9.33359 7.9485 9.66055 7.81168 9.90138 7.56765L17.2587 0.126952Z" fill="#A4353B"/>
</svg>
