<svg width="15" height="24" viewBox="0 0 15 24" fill="none" xmlns="http://www.w3.org/2000/svg">
<path d="M14.4963 8.99991H12.4326L12.4325 4.89986C12.4325 2.19986 10.2178 0 7.49978 0C4.78178 0 2.56709 2.19994 2.56709 4.89986V8.99991H0.503408C0.201398 8.99991 0 9.19997 0 9.49997V11.6C0 14.9 2.16447 17.6998 5.13418 18.7001V21.2001H3.17111C2.8691 21.2001 2.6677 21.4001 2.6677 21.7001V23.4999C2.6677 23.7999 2.8691 24 3.17111 24H11.8289C12.1309 24 12.3323 23.7999 12.3323 23.4999V21.6499C12.3323 21.3499 12.1309 21.1498 11.8289 21.1498H9.86582V18.6499C12.8355 17.6499 15 14.8498 15 11.5497L14.9998 9.49997C14.9998 9.19997 14.7986 8.99991 14.4966 8.99991H14.4963ZM7.49961 0.999771C9.66407 0.999771 11.4257 2.74971 11.4257 4.89977V5.94977H9.26128C8.95927 5.94977 8.75787 6.14983 8.75787 6.44983C8.75787 6.74983 8.95927 6.94989 9.26128 6.94989H11.4257V8.29989H9.26128C8.95927 8.29989 8.75787 8.49994 8.75787 8.79994C8.75787 9.09994 8.95927 9.3 9.26128 9.3H11.4257V10.65H9.26128C8.95927 10.65 8.75787 10.8501 8.75787 11.1501C8.75787 11.4501 8.95927 11.6501 9.26128 11.6501H11.4257C11.4257 13.8002 9.66407 15.5501 7.49961 15.5501C5.33514 15.5501 3.57347 13.8002 3.57347 11.6501H5.73794C6.03995 11.6501 6.24134 11.4501 6.24134 11.1501C6.24134 10.8501 6.03995 10.65 5.73794 10.65H3.57347V9.3H5.73794C6.03995 9.3 6.24134 9.09994 6.24134 8.79994C6.24134 8.49994 6.03995 8.29989 5.73794 8.29989H3.57347V6.94989H5.73794C6.03995 6.94989 6.24134 6.74983 6.24134 6.44983C6.24134 6.14983 6.03995 5.94977 5.73794 5.94977H3.57347V4.89977C3.57347 2.74989 5.33514 0.999771 7.49961 0.999771ZM11.3251 23.0001H3.67391V22.1501H11.3247L11.3251 23.0001ZM8.85865 21.15H6.14056V18.9C7.04659 19.05 7.90223 19.1001 8.85865 18.9V21.15ZM13.9928 11.55C13.9928 15.0999 11.0733 18 7.49961 18C3.92587 18 1.00638 15.0999 1.00638 11.55V9.99994H2.56683V11.6499C2.56683 14.3499 4.78151 16.5498 7.49952 16.5498C10.2175 16.5498 12.4322 14.3499 12.4322 11.6499V9.99994H13.9927L13.9928 11.55Z" fill="white"/>
</svg>
