<svg width="75" height="75" viewBox="0 0 75 75" fill="none" xmlns="http://www.w3.org/2000/svg">
<path d="M60.3227 31.534C58.7384 29.9582 57.85 27.8141 57.856 25.5798V18.347C57.856 18.028 57.7292 17.7218 57.5036 17.4963C57.2781 17.2707 56.9719 17.1439 56.6529 17.1439H49.4201C47.1853 17.1509 45.0412 16.262 43.466 14.6766L38.3508 9.56253C38.1253 9.33696 37.8191 9.2102 37.5001 9.2102C37.1811 9.2102 36.8749 9.33696 36.6494 9.56253L31.5342 14.6766C29.9584 16.2615 27.8144 17.1498 25.5801 17.1439H18.3473C18.0283 17.1439 17.7221 17.2707 17.4966 17.4963C17.271 17.7218 17.1442 18.028 17.1442 18.347V25.5798C17.1502 27.8141 16.2618 29.9582 14.6769 31.534L9.5629 36.6492C9.33733 36.8748 9.21058 37.1809 9.21058 37.4999C9.21058 37.8189 9.33733 38.1251 9.5629 38.3507L14.6769 43.4658C16.2624 45.0411 17.1513 47.1852 17.1442 49.42V56.6529C17.1442 56.9719 17.271 57.278 17.4966 57.5036C17.7221 57.7292 18.0283 57.8559 18.3473 57.8559H25.5801C27.8144 57.85 29.9584 58.7384 31.5342 60.3232L36.6494 65.4384C36.8749 65.664 37.1811 65.7907 37.5001 65.7907C37.8191 65.7907 38.1253 65.664 38.3508 65.4384L43.466 60.3232C45.0412 58.7378 47.1853 57.8489 49.4201 57.8559H56.6529C56.9719 57.8559 57.2781 57.7292 57.5036 57.5036C57.7292 57.278 57.856 56.9719 57.856 56.6529V49.42C57.849 47.1852 58.7379 45.0411 60.3233 43.4658L65.4384 38.3507C65.664 38.1251 65.7907 37.8189 65.7907 37.4999C65.7907 37.1809 65.664 36.8748 65.4384 36.6492L60.3227 31.534ZM58.6218 41.7649C56.5836 43.7902 55.4412 46.5471 55.4498 49.42V55.4498H49.4201C46.5472 55.4412 43.7905 56.5836 41.7651 58.6218L37.5 62.8863L33.235 58.6212V58.6217C31.2102 56.5835 28.4529 55.4411 25.58 55.4498H19.5502V49.42C19.5594 46.5466 18.4165 43.7898 16.3783 41.7649L12.1149 37.4998L16.3788 33.2348H16.3783C18.4159 31.2095 19.5584 28.4526 19.5502 25.5797V19.5499H25.58C28.4529 19.558 31.2096 18.4156 33.235 16.3779L37.5 12.1145L41.7651 16.3785V16.378C43.7899 18.4167 46.5472 19.5591 49.4201 19.5499H55.4498V25.5797C55.4413 28.4526 56.5836 31.2099 58.6218 33.2348L62.8863 37.4999L58.6218 41.7649ZM52.4819 30.0329L48.2546 29.3782L46.3957 25.5235L46.3962 25.523C46.1185 24.9451 45.5358 24.5761 44.8945 24.5718C44.2457 24.5396 43.6426 24.9064 43.3719 25.4972L41.4454 29.3169L37.2051 29.8927C36.5692 29.9786 36.0369 30.419 35.8334 31.0281C35.6293 31.6366 35.7893 32.3085 36.2453 32.7602L39.2798 35.7738L38.5182 39.9856L38.5187 39.9862C38.4054 40.6172 38.6605 41.258 39.1761 41.6393C39.6917 42.0206 40.3792 42.0764 40.9495 41.7832L44.7537 39.8271L48.5203 41.8514C49.0853 42.1559 49.7738 42.1129 50.2969 41.7407C50.8195 41.3691 51.0854 40.7321 50.9828 40.0984L50.2991 35.8747L53.391 32.9155C53.8545 32.4718 54.0259 31.8032 53.8325 31.1914C53.6397 30.5791 53.116 30.1301 52.4817 30.0324L52.4819 30.0329ZM48.3673 34.3951V34.3946C47.9624 34.777 47.7738 35.3361 47.8646 35.8856L48.3743 39.0414L45.5616 37.5307H45.5621C45.0729 37.2654 44.4842 37.2594 43.9901 37.514L41.1467 38.9765L41.7155 35.8292C41.8143 35.284 41.6387 34.7244 41.2455 34.3339L38.9758 32.0803L42.1409 31.6501H42.1403C42.6925 31.5776 43.1721 31.236 43.4213 30.7386L44.8618 27.8834L46.2507 30.7595H46.2502C46.4887 31.2628 46.9618 31.6146 47.5123 31.6984L50.6725 32.1871L48.3673 34.3951ZM49.6622 47.9543V47.9538C45.4639 48.5784 41.1914 47.4844 37.8099 44.9193C34.4279 42.3542 32.2232 38.5344 31.6932 34.3232C31.1631 30.1119 32.3527 25.8646 34.993 22.5417C35.464 21.9519 35.4828 21.1205 35.0397 20.5105C34.6095 19.8977 33.8216 19.6501 33.118 19.9063C31.1034 20.6152 29.2338 21.6829 27.5994 23.0573C23.5944 26.4474 21.228 31.3875 21.0965 36.6326C20.9262 41.7914 22.9999 46.77 26.7815 50.2826C31.4041 54.5717 37.9018 56.1926 43.997 54.5776C46.5825 53.8944 48.98 52.6355 51.0107 50.8959C51.5827 50.4131 51.7616 49.6085 51.4479 48.9291C51.1386 48.24 50.4087 47.8415 49.6622 47.9537L49.6622 47.9543ZM43.3767 52.2521V52.2516C38.0855 53.6577 32.4429 52.2526 28.4285 48.5296C25.1513 45.4854 23.3537 41.17 23.5014 36.6987C23.6147 32.1405 25.6691 27.847 29.1476 24.8995C29.9183 24.2502 30.7519 23.6793 31.636 23.1949C29.4812 26.8917 28.6993 31.2302 29.428 35.4468C30.1563 39.664 32.3486 43.4885 35.6189 46.2482C38.8897 49.0077 43.0285 50.5255 47.3074 50.5341H47.4202C46.1613 51.2973 44.7997 51.8758 43.3765 52.2517L43.3767 52.2521ZM73.9441 34.9485L65.4266 26.4309V26.4304C65.2021 26.2043 65.0759 25.8987 65.0743 25.5802V13.5351C65.0732 12.5785 64.6924 11.6606 64.0157 10.9844C63.3395 10.3077 62.4216 9.9269 61.465 9.92583H49.42C49.101 9.92637 48.7948 9.79961 48.5698 9.5735L40.0523 1.05591H40.0517C39.375 0.379716 38.4571 0 37.5 0C36.5435 0 35.6256 0.379716 34.9483 1.05591L26.4307 9.5735C26.2046 9.79854 25.8985 9.92529 25.58 9.92583H13.535C12.5784 9.9269 11.6605 10.3077 10.9843 10.9844C10.3076 11.6606 9.92683 12.5785 9.92576 13.5351V25.5802C9.92468 25.8987 9.79847 26.2043 9.57343 26.4304L1.0559 34.948V34.9485C0.379713 35.6253 0 36.5432 0 37.5003C0 38.4568 0.379713 39.3747 1.0559 40.052L9.57343 48.5696C9.79954 48.7952 9.9263 49.1013 9.92576 49.4203V61.4655C9.92683 62.422 10.3076 63.3399 10.9843 64.0161C11.6605 64.6928 12.5784 65.0736 13.535 65.0747H25.58C25.8985 65.0763 26.2041 65.2025 26.4302 65.427L34.9477 73.9446H34.9483C35.6255 74.6203 36.5429 75 37.5 75C38.4565 75 39.3744 74.6203 40.0517 73.9446L48.5693 65.427C48.7943 65.2004 49.101 65.0736 49.42 65.0747H61.465C62.4216 65.0736 63.3395 64.6928 64.0157 64.0161C64.6924 63.3399 65.0732 62.422 65.0743 61.4655V49.4203C65.0732 49.1013 65.1999 48.7946 65.4266 48.5701L73.9441 40.0526V40.052C74.6203 39.3753 75 38.4574 75 37.5003C75 36.5432 74.6203 35.6258 73.9441 34.9485ZM72.2432 38.3509L63.7257 46.8685C63.0462 47.5437 62.6655 48.4626 62.6681 49.4203V61.4654C62.6665 62.1292 62.1289 62.6669 61.4651 62.6685H49.42C48.4624 62.6658 47.544 63.0466 46.8683 63.726L38.3508 72.2436C38.1252 72.4692 37.8191 72.5959 37.5 72.5959C37.181 72.5959 36.8749 72.4692 36.6498 72.2436L28.1323 63.726H28.1318C27.4567 63.0466 26.5377 62.6658 25.5801 62.6685H13.535C12.8712 62.6674 12.333 62.1292 12.3319 61.4654V49.4203C12.3346 48.4627 11.9538 47.5442 11.2744 46.8685L2.75691 38.3509C2.28858 37.8805 2.28858 37.1199 2.75691 36.65L11.2744 28.1324V28.1319C11.9538 27.4568 12.3346 26.5378 12.3319 25.5801V13.535C12.3325 12.8706 12.8706 12.3325 13.535 12.3319H25.5801C26.5377 12.3346 27.4561 11.9538 28.1318 11.2744L36.6493 2.75683C36.8749 2.53126 37.181 2.4045 37.5 2.4045C37.8191 2.4045 38.1252 2.53125 38.3502 2.75683L46.8678 11.2744H46.8683C47.5434 11.9538 48.4624 12.3346 49.42 12.3319H61.4651C62.1289 12.333 62.6671 12.8712 62.6681 13.535V25.5801C62.6655 26.5378 63.0462 27.4562 63.7257 28.1319L72.2432 36.6495C72.4688 36.875 72.5955 37.1812 72.5955 37.5002C72.5955 37.8192 72.4688 38.1254 72.2432 38.351V38.3509Z" fill="white"/>
</svg>
