<svg width="14" height="14" viewBox="0 0 14 14" fill="none" xmlns="http://www.w3.org/2000/svg">
<path d="M5.76782 2.86024e-05C2.58682 2.86024e-05 0 2.59054 0 5.77116C0 8.95178 2.5869 11.5423 5.76782 11.5423C7.17912 11.5423 8.47424 11.0316 9.47831 10.1866L13.145 13.8529C13.2389 13.947 13.3665 14 13.4997 14C13.6327 14 13.7603 13.947 13.8542 13.8529C13.9476 13.759 14 13.6321 14 13.4997C14 13.3674 13.9476 13.2405 13.8542 13.1466L10.1866 9.47832C11.0305 8.47457 11.5396 7.18106 11.5396 5.77113C11.5396 2.59051 8.94876 0 5.76776 0L5.76782 2.86024e-05ZM5.76782 1.09064C8.35853 1.09064 10.4489 3.18076 10.4489 5.77113C10.4489 8.36153 8.3585 10.4476 5.76782 10.4476C3.17714 10.4476 1.09077 8.36141 1.09077 5.77113C1.09077 3.18073 3.17722 1.09064 5.76782 1.09064Z" fill="white"/>
</svg>
