<svg width="32" height="32" viewBox="0 0 32 32" fill="none" xmlns="http://www.w3.org/2000/svg">
<path d="M0 3.88764V28.1124C0 30.2596 1.74044 32 3.88764 32H28.1124C30.2596 32 32 30.2596 32 28.1124V3.88764C32 1.74044 30.2596 0 28.1124 0H3.88764C1.74044 0 0 1.74044 0 3.88764ZM25.2583 11.8318V14.2347C24.1252 14.235 23.0244 14.0132 21.9861 13.5751C21.3184 13.2932 20.6965 12.9301 20.1276 12.4914L20.1447 19.8873C20.1376 21.5527 19.4788 23.1175 18.2862 24.2962C17.3156 25.2555 16.086 25.8656 14.7531 26.0633C14.4398 26.1095 14.1212 26.1333 13.7988 26.1333C12.3719 26.1333 11.0172 25.6711 9.90933 24.8185C9.70098 24.6578 9.50151 24.4839 9.31164 24.2965C8.0192 23.019 7.35289 21.2878 7.46489 19.4667C7.55058 18.0804 8.1056 16.758 9.03076 15.722C10.2549 14.3506 11.9676 13.5893 13.7988 13.5893C14.1209 13.5893 14.4398 13.6135 14.7531 13.6597V14.5483V17.0197C14.4562 16.922 14.139 16.8679 13.8087 16.8679C12.1358 16.8679 10.7822 18.2329 10.8071 19.9072C10.8231 20.9785 11.408 21.9147 12.2713 22.4309C12.677 22.6734 13.1435 22.8238 13.6412 22.8512C14.0313 22.8725 14.406 22.8181 14.7527 22.7036C15.9481 22.3086 16.8103 21.1861 16.8103 19.862L16.8142 14.9092V5.86667H20.1234C20.1266 6.19449 20.16 6.51449 20.2215 6.82453C20.4711 8.07929 21.1787 9.168 22.1628 9.91004C23.0212 10.5575 24.09 10.9412 25.2484 10.9412L25.258 10.9404L25.2583 11.8318Z" fill="#FF004F"/>
</svg>
