<svg width="32" height="32" viewBox="0 0 32 32" fill="none" xmlns="http://www.w3.org/2000/svg">
<g clip-path="url(#clip0_380_30033)">
<path d="M25.1753 0H6.82467C3.05551 0 0 3.05551 0 6.82467V25.1753C0 28.9445 3.05551 32 6.82467 32H25.1753C28.9445 32 32 28.9445 32 25.1753V6.82467C32 3.05551 28.9445 0 25.1753 0Z" fill="#0A93E2"/>
<path fill-rule="evenodd" clip-rule="evenodd" d="M25.7335 11.1464C25.0319 11.457 24.2877 11.6608 23.5258 11.751C24.3226 11.2729 24.9319 10.5183 25.2132 9.623C24.4594 10.0697 23.6352 10.3852 22.7758 10.5558C22.2492 9.99043 21.5644 9.59694 20.8108 9.4266C20.0572 9.25627 19.2697 9.31701 18.5512 9.60089C17.8326 9.88478 17.2163 10.3786 16.7825 11.018C16.3488 11.6574 16.1179 12.4127 16.1199 13.1853C16.1189 13.4803 16.152 13.7744 16.2183 14.0618C14.6894 13.9852 13.1937 13.5879 11.8282 12.8959C10.4627 12.2039 9.25798 11.2325 8.29212 10.0449C7.79805 10.8915 7.64613 11.8949 7.86744 12.8499C8.08875 13.8048 8.66657 14.6391 9.48269 15.1821C8.87122 15.1629 8.27327 14.9974 7.73903 14.6993V14.7462C7.73903 16.6117 9.06552 18.1679 10.8233 18.5194C10.2578 18.6737 9.66446 18.6962 9.08896 18.5851C9.33476 19.3488 9.81284 20.0167 10.4565 20.4957C11.1002 20.9746 11.8773 21.2407 12.6794 21.2568C11.8816 21.8839 10.9679 22.3475 9.99065 22.621C9.0134 22.8944 7.99181 22.9724 6.98438 22.8505C8.68585 23.9426 10.7061 24.5754 12.881 24.5754C19.9587 24.5754 23.8257 18.7163 23.8257 13.6306C23.8257 13.4666 23.8257 13.3025 23.8164 13.1338C24.5663 12.5947 25.2225 11.9151 25.7381 11.1464H25.7335Z" fill="white"/>
</g>
<defs>
<clipPath id="clip0_380_30033">
<rect width="32" height="32" fill="white"/>
</clipPath>
</defs>
</svg>
