<svg width="38" height="34" viewBox="0 0 38 34" fill="none" xmlns="http://www.w3.org/2000/svg">
<path fill-rule="evenodd" clip-rule="evenodd" d="M37.6137 9.41753C37.6623 11.9922 36.7124 14.4238 34.9406 16.2632L18.7803 33.014L2.67538 16.2632C0.9027 14.4228 -0.0465293 11.9919 0.00175539 9.41753C0.0496815 6.84285 1.09046 4.44895 2.9305 2.67667C4.72637 0.946731 7.08401 0.000826094 9.58943 0.000826094C9.65127 0.000826094 9.71373 0.00175371 9.77773 0.00206289C12.3515 0.0506072 14.7463 1.09045 16.5186 2.93112L18.1577 4.63264C18.4978 4.98637 19.118 4.98637 19.4591 4.63264L21.0981 2.93112C22.8708 1.09076 25.2643 0.0502684 27.839 0.00206289C30.4118 -0.0505009 32.8446 0.903087 34.6856 2.67569C36.5253 4.44805 37.5655 6.84218 37.614 9.41687L37.6137 9.41753Z" fill="white"/>
</svg>
