<svg width="32" height="32" viewBox="0 0 32 32" fill="none" xmlns="http://www.w3.org/2000/svg">
<g clip-path="url(#clip0_380_30042)">
<path d="M26 2C27.0609 2 28.0783 2.42143 28.8284 3.17157C29.5786 3.92172 30 4.93913 30 6V26C30 27.0609 29.5786 28.0783 28.8284 28.8284C28.0783 29.5786 27.0609 30 26 30H6C4.93913 30 3.92172 29.5786 3.17157 28.8284C2.42143 28.0783 2 27.0609 2 26V6C2 4.93913 2.42143 3.92172 3.17157 3.17157C3.92172 2.42143 4.93913 2 6 2H26ZM26 0H6C4.41012 0.00461698 2.88668 0.638241 1.76246 1.76246C0.638241 2.88668 0.00461698 4.41012 0 6L0 26C0.00461698 27.5899 0.638241 29.1133 1.76246 30.2375C2.88668 31.3618 4.41012 31.9954 6 32H26C27.5899 31.9954 29.1133 31.3618 30.2375 30.2375C31.3618 29.1133 31.9954 27.5899 32 26V6C31.9954 4.41012 31.3618 2.88668 30.2375 1.76246C29.1133 0.638241 27.5899 0.00461698 26 0V0Z" fill="#E21A20"/>
<path fill-rule="evenodd" clip-rule="evenodd" d="M24.6567 13.4803C24.5342 11.7928 24.2267 10.0503 22.0692 9.92285C18.0267 9.69238 13.9743 9.69238 9.93171 9.92285C7.77421 10.0478 7.46671 11.7928 7.34421 13.4803C7.2186 15.158 7.2186 16.8427 7.34421 18.5203C7.46671 20.2078 7.77421 21.9503 9.93171 22.0778C13.9743 22.3083 18.0267 22.3083 22.0692 22.0778C24.2267 21.9528 24.5342 20.2078 24.6567 18.5203C24.7823 16.8427 24.7823 15.158 24.6567 13.4803V13.4803ZM14.2517 18.2503V13.2503L19.0017 15.7503L14.2517 18.2503Z" fill="#E21A20"/>
</g>
<defs>
<clipPath id="clip0_380_30042">
<rect width="32" height="32" fill="white"/>
</clipPath>
</defs>
</svg>
