<svg width="24" height="16" viewBox="0 0 24 16" fill="none" xmlns="http://www.w3.org/2000/svg">
<path d="M23.4985 2.49842C23.2224 1.515 22.4093 0.740518 21.3766 0.477678C19.505 0 11.9999 0 11.9999 0C11.9999 0 4.49498 0 2.62339 0.477678C1.59075 0.740518 0.777476 1.515 0.501545 2.49842C0 4.28101 0 8.00005 0 8.00005C0 8.00005 0 11.7191 0.501545 13.5017C0.777476 14.4851 1.59075 15.2595 2.62339 15.5224C4.49498 16 11.9999 16 11.9999 16C11.9999 16 19.505 16 21.3766 15.5224C22.4093 15.2595 23.2224 14.485 23.4985 13.5018C24 11.719 24 8.00005 24 8.00005C24 8.00005 24 4.28101 23.4985 2.49842Z" fill="#A4353B"/>
<path d="M9.54688 11.3763L15.8197 7.9998L9.54688 4.62305V11.3763Z" fill="white"/>
</svg>
